<?xml version="1.0" standalone="no"?>
<svg viewBox="0 0 200 200" xmlns="http://www.w3.org/2000/svg">
  <path fill="#2790C4" d="M26.6,-45.5C37.4,-39.9,51.1,-38.6,63.4,-31.8C75.7,-24.9,86.6,-12.5,89.1,1.4C91.5,15.2,85.3,30.5,72.3,36.2C59.3,41.8,39.5,37.9,26.3,40.9C13.1,43.8,6.5,53.6,-2.7,58.4C-12,63.2,-24.1,62.9,-32.8,57.3C-41.4,51.7,-46.8,40.9,-57.1,30.5C-67.4,20,-82.8,10,-87,-2.4C-91.1,-14.8,-84,-29.6,-75.1,-42.5C-66.2,-55.5,-55.5,-66.6,-42.7,-71C-29.9,-75.4,-14.9,-73.1,-3.5,-67C7.9,-60.9,15.9,-51.1,26.6,-45.5Z" transform="translate(100 100)" />
</svg>
