<svg id="visual" viewBox="0 0 1920 240" width="1920" height="240" xmlns="http://www.w3.org/2000/svg" xmlns:xlink="http://www.w3.org/1999/xlink" version="1.1">
    <rect x="0" y="0" width="1920" height="240" fill="#000031"></rect>
    <path d="M0 158L32 150.2C64 142.3 128 126.7 192 126.5C256 126.3 320 141.7 384 153.2C448 164.7 512 172.3 576 163C640 153.7 704 127.3 768 126.5C832 125.7 896 150.3 960 159.3C1024 168.3 1088 161.7 1152 154.7C1216 147.7 1280 140.3 1344 137C1408 133.7 1472 134.3 1536 138.8C1600 143.3 1664 151.7 1728 151.8C1792 152 1856 144 1888 140L1920 136L1920 241L1888 241C1856 241 1792 241 1728 241C1664 241 1600 241 1536 241C1472 241 1408 241 1344 241C1280 241 1216 241 1152 241C1088 241 1024 241 960 241C896 241 832 241 768 241C704 241 640 241 576 241C512 241 448 241 384 241C320 241 256 241 192 241C128 241 64 241 32 241L0 241Z" fill="#f5f5f5"></path><path d="M0 194L32 188C64 182 128 170 192 166.5C256 163 320 168 384 163C448 158 512 143 576 137C640 131 704 134 768 141.2C832 148.3 896 159.7 960 167.2C1024 174.7 1088 178.3 1152 172.5C1216 166.7 1280 151.3 1344 141.2C1408 131 1472 126 1536 127.8C1600 129.7 1664 138.3 1728 139.5C1792 140.7 1856 134.3 1888 131.2L1920 128L1920 241L1888 241C1856 241 1792 241 1728 241C1664 241 1600 241 1536 241C1472 241 1408 241 1344 241C1280 241 1216 241 1152 241C1088 241 1024 241 960 241C896 241 832 241 768 241C704 241 640 241 576 241C512 241 448 241 384 241C320 241 256 241 192 241C128 241 64 241 32 241L0 241Z" fill="#e4e9eb"></path><path d="M0 200L32 193.5C64 187 128 174 192 167.5C256 161 320 161 384 157.7C448 154.3 512 147.7 576 144.2C640 140.7 704 140.3 768 150.8C832 161.3 896 182.7 960 184.2C1024 185.7 1088 167.3 1152 167.2C1216 167 1280 185 1344 184.7C1408 184.3 1472 165.7 1536 163C1600 160.3 1664 173.7 1728 174.5C1792 175.3 1856 163.7 1888 157.8L1920 152L1920 241L1888 241C1856 241 1792 241 1728 241C1664 241 1600 241 1536 241C1472 241 1408 241 1344 241C1280 241 1216 241 1152 241C1088 241 1024 241 960 241C896 241 832 241 768 241C704 241 640 241 576 241C512 241 448 241 384 241C320 241 256 241 192 241C128 241 64 241 32 241L0 241Z" fill="#d3dce0"></path><path d="M0 219L32 214.2C64 209.3 128 199.7 192 196.3C256 193 320 196 384 197.2C448 198.3 512 197.7 576 195.2C640 192.7 704 188.3 768 183.5C832 178.7 896 173.3 960 172.8C1024 172.3 1088 176.7 1152 183.5C1216 190.3 1280 199.7 1344 205.7C1408 211.7 1472 214.3 1536 214.7C1600 215 1664 213 1728 204.5C1792 196 1856 181 1888 173.5L1920 166L1920 241L1888 241C1856 241 1792 241 1728 241C1664 241 1600 241 1536 241C1472 241 1408 241 1344 241C1280 241 1216 241 1152 241C1088 241 1024 241 960 241C896 241 832 241 768 241C704 241 640 241 576 241C512 241 448 241 384 241C320 241 256 241 192 241C128 241 64 241 32 241L0 241Z" fill="#c1d0d6"></path><path d="M0 225L32 222C64 219 128 213 192 209.2C256 205.3 320 203.7 384 201C448 198.3 512 194.7 576 197.8C640 201 704 211 768 209.5C832 208 896 195 960 192.7C1024 190.3 1088 198.7 1152 201.5C1216 204.3 1280 201.7 1344 198.8C1408 196 1472 193 1536 193.8C1600 194.7 1664 199.3 1728 198.7C1792 198 1856 192 1888 189L1920 186L1920 241L1888 241C1856 241 1792 241 1728 241C1664 241 1600 241 1536 241C1472 241 1408 241 1344 241C1280 241 1216 241 1152 241C1088 241 1024 241 960 241C896 241 832 241 768 241C704 241 640 241 576 241C512 241 448 241 384 241C320 241 256 241 192 241C128 241 64 241 32 241L0 241Z" fill="#b0c4cc"></path><path d="M0 210L32 209.5C64 209 128 208 192 209.8C256 211.7 320 216.3 384 216.5C448 216.7 512 212.3 576 212C640 211.7 704 215.3 768 215C832 214.7 896 210.3 960 212.8C1024 215.3 1088 224.7 1152 226.7C1216 228.7 1280 223.3 1344 223.3C1408 223.3 1472 228.7 1536 228.5C1600 228.3 1664 222.7 1728 217.7C1792 212.7 1856 208.3 1888 206.2L1920 204L1920 241L1888 241C1856 241 1792 241 1728 241C1664 241 1600 241 1536 241C1472 241 1408 241 1344 241C1280 241 1216 241 1152 241C1088 241 1024 241 960 241C896 241 832 241 768 241C704 241 640 241 576 241C512 241 448 241 384 241C320 241 256 241 192 241C128 241 64 241 32 241L0 241Z" fill="#9fb8c2"></path>
</svg>