<svg id="visual" viewBox="0 0 900 600" width="900" height="600" xmlns="http://www.w3.org/2000/svg" xmlns:xlink="http://www.w3.org/1999/xlink" version="1.1"><g stroke-width="1" stroke-linejoin="bevel"><path d="M478.3 312L527.3 250L396.7 258Z" fill="#f0f0f0" stroke="#f0f0f0"></path><path d="M396.7 258L360.7 323L478.3 312Z" fill="#d9d9d9" stroke="#d9d9d9"></path><path d="M527.3 250L388.7 123L396.7 258Z" fill="#d9d9d9" stroke="#d9d9d9"></path><path d="M396.7 258L211.1 223L360.7 323Z" fill="#d9d9d9" stroke="#d9d9d9"></path><path d="M527.3 250L553.3 98L388.7 123Z" fill="#e3e3e3" stroke="#e3e3e3"></path><path d="M596.9 148L553.3 98L527.3 250Z" fill="#e3e3e3" stroke="#e3e3e3"></path><path d="M395.7 0L298.1 113L388.7 123Z" fill="#d5d5d5" stroke="#d5d5d5"></path><path d="M388.7 123L298.1 113L396.7 258Z" fill="#e3e3e3" stroke="#e3e3e3"></path><path d="M670.9 354L676.9 273L527.3 250Z" fill="#f5f5f5" stroke="#f5f5f5"></path><path d="M527.3 250L676.9 273L596.9 148Z" fill="#d9d9d9" stroke="#d9d9d9"></path><path d="M541.3 493L670.9 354L478.3 312Z" fill="#f0f0f0" stroke="#f0f0f0"></path><path d="M478.3 312L670.9 354L527.3 250Z" fill="#ececec" stroke="#ececec"></path><path d="M298.1 113L211.1 223L396.7 258Z" fill="#f0f0f0" stroke="#f0f0f0"></path><path d="M210.1 347L302.1 449L360.7 323Z" fill="#f0f0f0" stroke="#f0f0f0"></path><path d="M361.7 486L541.3 493L478.3 312Z" fill="#f5f5f5" stroke="#f5f5f5"></path><path d="M553.3 98L395.7 0L388.7 123Z" fill="#ececec" stroke="#ececec"></path><path d="M361.7 486L478.3 312L360.7 323Z" fill="#d9d9d9" stroke="#d9d9d9"></path><path d="M302.1 449L361.7 486L360.7 323Z" fill="#f5f5f5" stroke="#f5f5f5"></path><path d="M686.9 0L543.3 0L553.3 98Z" fill="#f5f5f5" stroke="#f5f5f5"></path><path d="M553.3 98L543.3 0L395.7 0Z" fill="#c7c7c7" stroke="#c7c7c7"></path><path d="M686.9 0L553.3 98L596.9 148Z" fill="#f5f5f5" stroke="#f5f5f5"></path><path d="M211.1 223L210.1 347L360.7 323Z" fill="#ececec" stroke="#ececec"></path><path d="M541.3 493L675.9 472L670.9 354Z" fill="#dedede" stroke="#dedede"></path><path d="M670.9 354L781.4 330L676.9 273Z" fill="#d9d9d9" stroke="#d9d9d9"></path><path d="M112.6 111L137.6 204L211.1 223Z" fill="#f0f0f0" stroke="#f0f0f0"></path><path d="M395.7 0L258.1 0L298.1 113Z" fill="#c7c7c7" stroke="#c7c7c7"></path><path d="M112.6 111L211.1 223L298.1 113Z" fill="#f5f5f5" stroke="#f5f5f5"></path><path d="M211.1 223L137.6 204L210.1 347Z" fill="#dedede" stroke="#dedede"></path><path d="M744.4 433L781.4 330L670.9 354Z" fill="#e7e7e7" stroke="#e7e7e7"></path><path d="M787.4 167L686.9 0L596.9 148Z" fill="#f0f0f0" stroke="#f0f0f0"></path><path d="M787.4 167L596.9 148L676.9 273Z" fill="#e7e7e7" stroke="#e7e7e7"></path><path d="M809.4 201L787.4 167L676.9 273Z" fill="#d9d9d9" stroke="#d9d9d9"></path><path d="M675.9 472L744.4 433L670.9 354Z" fill="#e3e3e3" stroke="#e3e3e3"></path><path d="M781.4 330L809.4 201L676.9 273Z" fill="#dedede" stroke="#dedede"></path><path d="M787.4 167L817.4 0L686.9 0Z" fill="#d0d0d0" stroke="#d0d0d0"></path><path d="M392.7 600L468.3 600L361.7 486Z" fill="#ececec" stroke="#ececec"></path><path d="M361.7 486L468.3 600L541.3 493Z" fill="#d0d0d0" stroke="#d0d0d0"></path><path d="M541.3 493L683.9 600L675.9 472Z" fill="#e3e3e3" stroke="#e3e3e3"></path><path d="M675.9 472L779.4 600L744.4 433Z" fill="#d5d5d5" stroke="#d5d5d5"></path><path d="M244.1 600L392.7 600L361.7 486Z" fill="#d9d9d9" stroke="#d9d9d9"></path><path d="M244.1 600L361.7 486L302.1 449Z" fill="#e7e7e7" stroke="#e7e7e7"></path><path d="M172.6 0L112.6 111L298.1 113Z" fill="#d5d5d5" stroke="#d5d5d5"></path><path d="M137.6 204L107.6 381L210.1 347Z" fill="#d9d9d9" stroke="#d9d9d9"></path><path d="M210.1 347L152.6 513L302.1 449Z" fill="#d9d9d9" stroke="#d9d9d9"></path><path d="M0 250L107.6 381L137.6 204Z" fill="#ececec" stroke="#ececec"></path><path d="M258.1 0L172.6 0L298.1 113Z" fill="#e3e3e3" stroke="#e3e3e3"></path><path d="M107.6 381L152.6 513L210.1 347Z" fill="#cccccc" stroke="#cccccc"></path><path d="M152.6 513L244.1 600L302.1 449Z" fill="#d5d5d5" stroke="#d5d5d5"></path><path d="M468.3 600L683.9 600L541.3 493Z" fill="#d9d9d9" stroke="#d9d9d9"></path><path d="M900 90L817.4 0L787.4 167Z" fill="#d5d5d5" stroke="#d5d5d5"></path><path d="M781.4 330L900 254L809.4 201Z" fill="#cccccc" stroke="#cccccc"></path><path d="M809.4 201L900 90L787.4 167Z" fill="#d9d9d9" stroke="#d9d9d9"></path><path d="M900 333L900 254L781.4 330Z" fill="#d9d9d9" stroke="#d9d9d9"></path><path d="M900 333L781.4 330L900 444Z" fill="#dedede" stroke="#dedede"></path><path d="M900 444L781.4 330L744.4 433Z" fill="#ececec" stroke="#ececec"></path><path d="M107.6 381L0 517L152.6 513Z" fill="#ececec" stroke="#ececec"></path><path d="M112.6 111L0 250L137.6 204Z" fill="#ececec" stroke="#ececec"></path><path d="M0 74L0 250L112.6 111Z" fill="#e7e7e7" stroke="#e7e7e7"></path><path d="M0 600L159.6 600L152.6 513Z" fill="#e3e3e3" stroke="#e3e3e3"></path><path d="M152.6 513L159.6 600L244.1 600Z" fill="#c7c7c7" stroke="#c7c7c7"></path><path d="M900 254L900 90L809.4 201Z" fill="#d9d9d9" stroke="#d9d9d9"></path><path d="M683.9 600L779.4 600L675.9 472Z" fill="#f5f5f5" stroke="#f5f5f5"></path><path d="M0 250L0 362L107.6 381Z" fill="#d0d0d0" stroke="#d0d0d0"></path><path d="M779.4 600L900 444L744.4 433Z" fill="#cccccc" stroke="#cccccc"></path><path d="M0 0L0 74L112.6 111Z" fill="#ececec" stroke="#ececec"></path><path d="M900 90L900 0L817.4 0Z" fill="#d5d5d5" stroke="#d5d5d5"></path><path d="M172.6 0L0 0L112.6 111Z" fill="#dedede" stroke="#dedede"></path><path d="M0 362L0 517L107.6 381Z" fill="#f0f0f0" stroke="#f0f0f0"></path><path d="M779.4 600L900 600L900 444Z" fill="#ececec" stroke="#ececec"></path><path d="M0 517L0 600L152.6 513Z" fill="#ececec" stroke="#ececec"></path></g></svg>