<?xml version="1.0" standalone="no"?>
<svg viewBox="0 0 200 200" xmlns="http://www.w3.org/2000/svg">
  <path fill="#74b2f3" d="M28.2,-53.2C33.3,-45.8,32.2,-31.9,32.5,-21.9C32.7,-12,34.3,-6,40.7,3.7C47,13.3,58.1,26.6,58.3,37.4C58.5,48.2,47.9,56.4,36.4,62C24.9,67.6,12.5,70.5,3.1,65.1C-6.2,59.7,-12.4,45.9,-23.1,39.9C-33.8,33.8,-49,35.4,-62.4,30.1C-75.9,24.7,-87.5,12.4,-90.5,-1.7C-93.5,-15.8,-87.7,-31.6,-76.2,-40.3C-64.8,-49.1,-47.6,-50.8,-33.9,-53.3C-20.2,-55.8,-10.1,-59.1,0.7,-60.3C11.5,-61.5,23,-60.6,28.2,-53.2Z" transform="translate(100 100)" />
</svg>
