<?xml version="1.0" standalone="no"?>
<svg viewBox="0 0 200 200" xmlns="http://www.w3.org/2000/svg">
  <path fill="#9ec5f0" d="M31.2,-54.9C44.4,-46.5,61.6,-46,67.5,-38.2C73.4,-30.4,67.9,-15.2,68.9,0.6C69.9,16.3,77.3,32.6,72.4,42.2C67.6,51.8,50.3,54.6,36.2,62.6C22.1,70.6,11,83.8,-2.4,87.9C-15.8,92.1,-31.6,87.1,-40.5,76.1C-49.4,65,-51.3,47.9,-58,34.2C-64.7,20.5,-76.2,10.2,-75.5,0.4C-74.8,-9.4,-61.9,-18.8,-51.6,-26.4C-41.3,-33.9,-33.7,-39.6,-25.6,-50.9C-17.4,-62.2,-8.7,-79.3,0.2,-79.5C9,-79.8,18.1,-63.4,31.2,-54.9Z" transform="translate(100 100)" />
</svg>
