<?xml version="1.0" standalone="no"?>
<svg viewBox="0 0 200 200" xmlns="http://www.w3.org/2000/svg">
  <path fill="#97c3f1" d="M30.3,-52.9C39.4,-47.2,46.9,-39.3,56.1,-30.1C65.3,-20.9,76.2,-10.5,74.7,-0.9C73.2,8.7,59.2,17.4,52.4,30.8C45.6,44.2,46,62.2,38.4,74C30.9,85.8,15.4,91.3,3,86C-9.4,80.7,-18.8,64.7,-31.7,56.1C-44.6,47.4,-61.1,46.1,-67.2,38C-73.3,29.8,-69.2,14.9,-70,-0.5C-70.9,-15.9,-76.8,-31.9,-73.9,-45.5C-71,-59.2,-59.2,-70.7,-45.4,-73.6C-31.6,-76.6,-15.8,-71.1,-2.6,-66.6C10.6,-62.1,21.2,-58.6,30.3,-52.9Z" transform="translate(100 100)" />
</svg>
