<?xml version="1.0" standalone="no"?>
<svg viewBox="0 0 200 200" xmlns="http://www.w3.org/2000/svg">
  <path fill="#4a97ba" d="M27.7,-40.8C41.3,-40.1,61.5,-43.7,68.6,-37.6C75.6,-31.4,69.5,-15.7,66.8,-1.6C64,12.5,64.6,25.1,61.6,38.1C58.5,51.2,51.9,64.8,41,66.9C30.1,69,15.1,59.7,0.2,59.3C-14.6,58.9,-29.2,67.4,-36.8,63.3C-44.3,59.3,-44.8,42.7,-48.5,30.1C-52.2,17.4,-59,8.7,-63.9,-2.8C-68.9,-14.4,-71.9,-28.8,-68.9,-42.7C-65.9,-56.6,-57,-69.9,-44.5,-71.2C-32,-72.5,-16,-61.8,-4.5,-54.1C7.1,-46.3,14.1,-41.5,27.7,-40.8Z" transform="translate(100 100)" />
</svg>
