<svg id="visual" viewBox="0 0 1920 3000" width="1920" height="3000" xmlns="http://www.w3.org/2000/svg" xmlns:xlink="http://www.w3.org/1999/xlink" version="1.1">
    <rect x="0" y="0" width="1920" height="3000" fill="#000031"></rect>
    <g fill="#f5f5f5">
        <circle r="4" cx="1058" cy="1951"></circle>
        <circle r="9" cx="61" cy="1381"></circle>
        <circle r="10" cx="1175" cy="2332"></circle>
        <circle r="17" cx="128" cy="865"></circle>
        <circle r="16" cx="1317" cy="1307"></circle>
        <circle r="11" cx="1186" cy="2479"></circle>
        <circle r="17" cx="1104" cy="2528"></circle>
        <circle r="13" cx="1407" cy="56"></circle>
        <circle r="10" cx="1538" cy="1185"></circle>
        <circle r="21" cx="279" cy="134"></circle>
        <circle r="21" cx="979" cy="2551"></circle>
        <circle r="20" cx="1437" cy="1946"></circle>
        <circle r="23" cx="581" cy="1760"></circle>
        <circle r="13" cx="840" cy="2382"></circle>
        <circle r="23" cx="888" cy="610"></circle>
        <circle r="38" cx="985" cy="535"></circle>
        <circle r="23" cx="135" cy="2921"></circle>
        <circle r="39" cx="1752" cy="653"></circle>
        <circle r="26" cx="654" cy="2226"></circle>
        <circle r="33" cx="303" cy="1956"></circle>
        <circle r="10" cx="1397" cy="1418"></circle>
        <circle r="14" cx="1153" cy="428"></circle>
        <circle r="10" cx="688" cy="1114"></circle>
        <circle r="16" cx="1757" cy="1891"></circle>
        <circle r="13" cx="1076" cy="1258"></circle>
        <circle r="15" cx="1809" cy="1473"></circle>
        <circle r="17" cx="1212" cy="2717"></circle>
        <circle r="21" cx="863" cy="132"></circle>
        <circle r="13" cx="136" cy="556"></circle>
        <circle r="25" cx="1868" cy="2082"></circle>
        <circle r="10" cx="946" cy="309"></circle>
        <circle r="11" cx="456" cy="242"></circle>
        <circle r="15" cx="1492" cy="1050"></circle>
        <circle r="35" cx="227" cy="1800"></circle>
        <circle r="29" cx="1777" cy="425"></circle>
        <circle r="38" cx="1751" cy="178"></circle>
        <circle r="40" cx="1493" cy="2860"></circle>
        <circle r="22" cx="1071" cy="824"></circle>
        <circle r="9" cx="540" cy="933"></circle>
        <circle r="15" cx="1627" cy="154"></circle>
        <circle r="11" cx="1819" cy="2225"></circle>
        <circle r="16" cx="1854" cy="2569"></circle>
        <circle r="19" cx="70" cy="1228"></circle>
        <circle r="12" cx="651" cy="2335"></circle>
        <circle r="17" cx="1276" cy="1015"></circle>
        <circle r="19" cx="766" cy="591"></circle>
        <circle r="13" cx="1823" cy="2853"></circle>
        <circle r="9" cx="793" cy="1389"></circle>
        <circle r="26" cx="404" cy="2168"></circle>
        <circle r="13" cx="476" cy="1276"></circle>
        <circle r="41" cx="1361" cy="2063"></circle>
        <circle r="19" cx="945" cy="2781"></circle>
        <circle r="38" cx="652" cy="2623"></circle>
        <circle r="21" cx="1166" cy="1072"></circle>
        <circle r="13" cx="1718" cy="2088"></circle>
        <circle r="38" cx="475" cy="2860"></circle>
        <circle r="22" cx="132" cy="2061"></circle>
        <circle r="28" cx="158" cy="166"></circle>
        <circle r="30" cx="1350" cy="2898"></circle>
        <circle r="15" cx="721" cy="265"></circle>
        <circle r="9" cx="886" cy="2088"></circle>
        <circle r="9" cx="72" cy="2571"></circle>
        <circle r="21" cx="1839" cy="2715"></circle>
        <circle r="29" cx="1595" cy="2529"></circle>
        <circle r="26" cx="98" cy="1569"></circle>
        <circle r="26" cx="1430" cy="2558"></circle>
        <circle r="12" cx="234" cy="1413"></circle>
        <circle r="11" cx="1839" cy="1733"></circle>
        <circle r="27" cx="373" cy="608"></circle>
        <circle r="30" cx="541" cy="1443"></circle>
        <circle r="28" cx="1022" cy="1118"></circle>
        <circle r="33" cx="394" cy="1075"></circle>
        <circle r="10" cx="412" cy="740"></circle>
        <circle r="36" cx="1023" cy="128"></circle>
        <circle r="30" cx="511" cy="592"></circle>
        <circle r="24" cx="1828" cy="742"></circle>
        <circle r="41" cx="1765" cy="1650"></circle>
        <circle r="23" cx="1278" cy="1630"></circle>
        <circle r="14" cx="351" cy="1569"></circle>
        <circle r="13" cx="1786" cy="2365"></circle>
        <circle r="11" cx="1254" cy="2928"></circle>
        <circle r="18" cx="1265" cy="2163"></circle>
        <circle r="10" cx="1218" cy="950"></circle>
        <circle r="39" cx="852" cy="2593"></circle>
        <circle r="33" cx="531" cy="1100"></circle>
        <circle r="24" cx="952" cy="1741"></circle>
        <circle r="37" cx="839" cy="733"></circle>
        <circle r="19" cx="507" cy="1805"></circle>
        <circle r="35" cx="1569" cy="564"></circle>
        <circle r="34" cx="599" cy="2001"></circle>
        <circle r="14" cx="178" cy="1034"></circle>
        <circle r="18" cx="864" cy="1453"></circle>
        <circle r="22" cx="614" cy="728"></circle>
        <circle r="19" cx="1862" cy="1070"></circle>
        <circle r="17" cx="1070" cy="453"></circle>
        <circle r="17" cx="346" cy="2305"></circle>
        <circle r="17" cx="178" cy="478"></circle>
        <circle r="14" cx="379" cy="2822"></circle>
        <circle r="14" cx="1421" cy="2701"></circle>
        <circle r="12" cx="1531" cy="86"></circle>
        <circle r="15" cx="1407" cy="160"></circle>
        <circle r="12" cx="1358" cy="1086"></circle>
        <circle r="11" cx="273" cy="1661"></circle>
        <circle r="15" cx="1843" cy="1185"></circle>
        <circle r="11" cx="1205" cy="1979"></circle>
        <circle r="11" cx="1043" cy="2636"></circle>
        <circle r="11" cx="1191" cy="304"></circle>
    </g>
</svg>