<svg id="visual" viewBox="0 0 1920 1080" width="1920" height="1080" xmlns="http://www.w3.org/2000/svg" xmlns:xlink="http://www.w3.org/1999/xlink" version="1.1"><path d="M0 87L192 77L384 55L576 23L768 77L960 66L1152 66L1344 33L1536 44L1728 77L1920 55L1920 0L1728 0L1536 0L1344 0L1152 0L960 0L768 0L576 0L384 0L192 0L0 0Z" fill="#bfe6db"></path><path d="M0 336L192 347L384 357L576 282L768 368L960 314L1152 336L1344 271L1536 271L1728 390L1920 249L1920 53L1728 75L1536 42L1344 31L1152 64L960 64L768 75L576 21L384 53L192 75L0 85Z" fill="#b5e2d6"></path><path d="M0 401L192 422L384 422L576 357L768 444L960 347L1152 390L1344 293L1536 303L1728 433L1920 303L1920 247L1728 388L1536 269L1344 269L1152 334L960 312L768 366L576 280L384 355L192 345L0 334Z" fill="#aadfd1"></path><path d="M0 563L192 487L384 487L576 422L768 595L960 519L1152 530L1344 530L1536 541L1728 638L1920 455L1920 301L1728 431L1536 301L1344 291L1152 388L960 345L768 442L576 355L384 420L192 420L0 399Z" fill="#9fdbcd"></path><path d="M0 606L192 552L384 563L576 541L768 703L960 595L1152 606L1344 606L1536 606L1728 671L1920 530L1920 453L1728 636L1536 539L1344 528L1152 528L960 517L768 593L576 420L384 485L192 485L0 561Z" fill="#94d8c8"></path><path d="M0 671L192 649L384 638L576 649L768 746L960 735L1152 735L1344 735L1536 725L1728 714L1920 681L1920 528L1728 669L1536 604L1344 604L1152 604L960 593L768 701L576 539L384 561L192 550L0 604Z" fill="#88d4c4"></path><path d="M0 779L192 789L384 833L576 822L768 865L960 779L1152 822L1344 833L1536 811L1728 789L1920 811L1920 679L1728 712L1536 723L1344 733L1152 733L960 733L768 744L576 647L384 636L192 647L0 669Z" fill="#7cd0c0"></path><path d="M0 843L192 811L384 897L576 865L768 897L960 822L1152 897L1344 854L1536 843L1728 854L1920 865L1920 809L1728 787L1536 809L1344 831L1152 820L960 777L768 863L576 820L384 831L192 787L0 777Z" fill="#6fcdbb"></path><path d="M0 919L192 865L384 930L576 941L768 951L960 897L1152 951L1344 941L1536 887L1728 941L1920 951L1920 863L1728 852L1536 841L1344 852L1152 895L960 820L768 895L576 863L384 895L192 809L0 841Z" fill="#61c9b7"></path><path d="M0 1038L192 984L384 1027L576 1049L768 1038L960 1005L1152 1038L1344 973L1536 1027L1728 1049L1920 995L1920 949L1728 939L1536 885L1344 939L1152 949L960 895L768 949L576 939L384 928L192 863L0 917Z" fill="#52c6b3"></path><path d="M0 1081L192 1081L384 1081L576 1081L768 1081L960 1081L1152 1081L1344 1081L1536 1081L1728 1081L1920 1081L1920 993L1728 1047L1536 1025L1344 971L1152 1036L960 1003L768 1036L576 1047L384 1025L192 982L0 1036Z" fill="#40c2af"></path></svg>