<?xml version="1.0" standalone="no"?>
<svg viewBox="0 0 200 200" xmlns="http://www.w3.org/2000/svg">
  <path fill="#73b4f8" d="M20.6,-39.9C28.2,-31.3,36.9,-28.8,48.7,-23.2C60.5,-17.5,75.4,-8.8,80.8,3.1C86.2,15,82,30,71.3,37.5C60.6,45.1,43.4,45.2,30.4,46.9C17.5,48.6,8.7,51.8,-3.3,57.4C-15.2,63.1,-30.5,71.1,-43.2,69.3C-55.8,67.4,-66,55.7,-67.5,42.5C-69.1,29.3,-62.2,14.6,-57.4,2.7C-52.7,-9.2,-50.2,-18.3,-46.7,-28.3C-43.2,-38.2,-38.8,-48.8,-30.8,-57.2C-22.9,-65.6,-11.4,-71.8,-2.5,-67.5C6.5,-63.2,13,-48.5,20.6,-39.9Z" transform="translate(100 100)" />
</svg>
