<?xml version="1.0" standalone="no"?>
<svg viewBox="0 0 200 200" xmlns="http://www.w3.org/2000/svg">
  <path fill="#81b7f1" d="M34.7,-61.5C47.8,-52.6,63.1,-49,71.6,-39.6C80,-30.2,81.6,-15.1,74.1,-4.3C66.5,6.4,50,12.9,43.4,25.5C36.8,38.1,40.3,56.9,34.7,65.7C29.2,74.4,14.6,73.1,3.3,67.4C-8.1,61.7,-16.1,51.8,-29.7,47.7C-43.2,43.6,-62.3,45.3,-72.1,38.3C-81.8,31.3,-82.2,15.7,-78.7,2C-75.2,-11.7,-68,-23.4,-60.9,-35C-53.9,-46.6,-47.1,-58.2,-37,-68.8C-26.9,-79.4,-13.4,-89,-1.3,-86.8C10.8,-84.5,21.7,-70.4,34.7,-61.5Z" transform="translate(100 100)" />
</svg>
