<svg id="visual" viewBox="0 0 1920 700" width="1920" height="700" xmlns="http://www.w3.org/2000/svg" xmlns:xlink="http://www.w3.org/1999/xlink" version="1.1"><path d="M0 190L26.7 166.7C53.3 143.3 106.7 96.7 160 87.3C213.3 78 266.7 106 320 120C373.3 134 426.7 134 480 118.8C533.3 103.7 586.7 73.3 640 78C693.3 82.7 746.7 122.3 800 134C853.3 145.7 906.7 129.3 960 135.2C1013.3 141 1066.7 169 1120 174.8C1173.3 180.7 1226.7 164.3 1280 144.5C1333.3 124.7 1386.7 101.3 1440 97.8C1493.3 94.3 1546.7 110.7 1600 115.3C1653.3 120 1706.7 113 1760 121.2C1813.3 129.3 1866.7 152.7 1893.3 164.3L1920 176L1920 0L1893.3 0C1866.7 0 1813.3 0 1760 0C1706.7 0 1653.3 0 1600 0C1546.7 0 1493.3 0 1440 0C1386.7 0 1333.3 0 1280 0C1226.7 0 1173.3 0 1120 0C1066.7 0 1013.3 0 960 0C906.7 0 853.3 0 800 0C746.7 0 693.3 0 640 0C586.7 0 533.3 0 480 0C426.7 0 373.3 0 320 0C266.7 0 213.3 0 160 0C106.7 0 53.3 0 26.7 0L0 0Z" fill="#9fb8c2"></path><path d="M0 232L26.7 213.3C53.3 194.7 106.7 157.3 160 165.5C213.3 173.7 266.7 227.3 320 251.8C373.3 276.3 426.7 271.7 480 253C533.3 234.3 586.7 201.7 640 190C693.3 178.3 746.7 187.7 800 191.2C853.3 194.7 906.7 192.3 960 201.7C1013.3 211 1066.7 232 1120 243.7C1173.3 255.3 1226.7 257.7 1280 246C1333.3 234.3 1386.7 208.7 1440 198.2C1493.3 187.7 1546.7 192.3 1600 192.3C1653.3 192.3 1706.7 187.7 1760 199.3C1813.3 211 1866.7 239 1893.3 253L1920 267L1920 174L1893.3 162.3C1866.7 150.7 1813.3 127.3 1760 119.2C1706.7 111 1653.3 118 1600 113.3C1546.7 108.7 1493.3 92.3 1440 95.8C1386.7 99.3 1333.3 122.7 1280 142.5C1226.7 162.3 1173.3 178.7 1120 172.8C1066.7 167 1013.3 139 960 133.2C906.7 127.3 853.3 143.7 800 132C746.7 120.3 693.3 80.7 640 76C586.7 71.3 533.3 101.7 480 116.8C426.7 132 373.3 132 320 118C266.7 104 213.3 76 160 85.3C106.7 94.7 53.3 141.3 26.7 164.7L0 188Z" fill="#7392a4"></path><path d="M0 477L26.7 451.3C53.3 425.7 106.7 374.3 160 377.8C213.3 381.3 266.7 439.7 320 447.8C373.3 456 426.7 414 480 396.5C533.3 379 586.7 386 640 401.2C693.3 416.3 746.7 439.7 800 446.7C853.3 453.7 906.7 444.3 960 440.8C1013.3 437.3 1066.7 439.7 1120 435C1173.3 430.3 1226.7 418.7 1280 410.5C1333.3 402.3 1386.7 397.7 1440 407C1493.3 416.3 1546.7 439.7 1600 444.3C1653.3 449 1706.7 435 1760 421C1813.3 407 1866.7 393 1893.3 386L1920 379L1920 265L1893.3 251C1866.7 237 1813.3 209 1760 197.3C1706.7 185.7 1653.3 190.3 1600 190.3C1546.7 190.3 1493.3 185.7 1440 196.2C1386.7 206.7 1333.3 232.3 1280 244C1226.7 255.7 1173.3 253.3 1120 241.7C1066.7 230 1013.3 209 960 199.7C906.7 190.3 853.3 192.7 800 189.2C746.7 185.7 693.3 176.3 640 188C586.7 199.7 533.3 232.3 480 251C426.7 269.7 373.3 274.3 320 249.8C266.7 225.3 213.3 171.7 160 163.5C106.7 155.3 53.3 192.7 26.7 211.3L0 230Z" fill="#4c6d88"></path><path d="M0 540L26.7 517.8C53.3 495.7 106.7 451.3 160 453.7C213.3 456 266.7 505 320 508.5C373.3 512 426.7 470 480 450.2C533.3 430.3 586.7 432.7 640 456C693.3 479.3 746.7 523.7 800 529.5C853.3 535.3 906.7 502.7 960 491C1013.3 479.3 1066.7 488.7 1120 496.8C1173.3 505 1226.7 512 1280 515.5C1333.3 519 1386.7 519 1440 522.5C1493.3 526 1546.7 533 1600 521.3C1653.3 509.7 1706.7 479.3 1760 459.5C1813.3 439.7 1866.7 430.3 1893.3 425.7L1920 421L1920 377L1893.3 384C1866.7 391 1813.3 405 1760 419C1706.7 433 1653.3 447 1600 442.3C1546.7 437.7 1493.3 414.3 1440 405C1386.7 395.7 1333.3 400.3 1280 408.5C1226.7 416.7 1173.3 428.3 1120 433C1066.7 437.7 1013.3 435.3 960 438.8C906.7 442.3 853.3 451.7 800 444.7C746.7 437.7 693.3 414.3 640 399.2C586.7 384 533.3 377 480 394.5C426.7 412 373.3 454 320 445.8C266.7 437.7 213.3 379.3 160 375.8C106.7 372.3 53.3 423.7 26.7 449.3L0 475Z" fill="#2b496c"></path><path d="M0 624L26.7 626.3C53.3 628.7 106.7 633.3 160 636.8C213.3 640.3 266.7 642.7 320 643.8C373.3 645 426.7 645 480 636.8C533.3 628.7 586.7 612.3 640 614.7C693.3 617 746.7 638 800 638C853.3 638 906.7 617 960 612.3C1013.3 607.7 1066.7 619.3 1120 621.7C1173.3 624 1226.7 617 1280 624C1333.3 631 1386.7 652 1440 659C1493.3 666 1546.7 659 1600 652C1653.3 645 1706.7 638 1760 631C1813.3 624 1866.7 617 1893.3 613.5L1920 610L1920 419L1893.3 423.7C1866.7 428.3 1813.3 437.7 1760 457.5C1706.7 477.3 1653.3 507.7 1600 519.3C1546.7 531 1493.3 524 1440 520.5C1386.7 517 1333.3 517 1280 513.5C1226.7 510 1173.3 503 1120 494.8C1066.7 486.7 1013.3 477.3 960 489C906.7 500.7 853.3 533.3 800 527.5C746.7 521.7 693.3 477.3 640 454C586.7 430.7 533.3 428.3 480 448.2C426.7 468 373.3 510 320 506.5C266.7 503 213.3 454 160 451.7C106.7 449.3 53.3 493.7 26.7 515.8L0 538Z" fill="#0e284f"></path><path d="M0 701L26.7 701C53.3 701 106.7 701 160 701C213.3 701 266.7 701 320 701C373.3 701 426.7 701 480 701C533.3 701 586.7 701 640 701C693.3 701 746.7 701 800 701C853.3 701 906.7 701 960 701C1013.3 701 1066.7 701 1120 701C1173.3 701 1226.7 701 1280 701C1333.3 701 1386.7 701 1440 701C1493.3 701 1546.7 701 1600 701C1653.3 701 1706.7 701 1760 701C1813.3 701 1866.7 701 1893.3 701L1920 701L1920 608L1893.3 611.5C1866.7 615 1813.3 622 1760 629C1706.7 636 1653.3 643 1600 650C1546.7 657 1493.3 664 1440 657C1386.7 650 1333.3 629 1280 622C1226.7 615 1173.3 622 1120 619.7C1066.7 617.3 1013.3 605.7 960 610.3C906.7 615 853.3 636 800 636C746.7 636 693.3 615 640 612.7C586.7 610.3 533.3 626.7 480 634.8C426.7 643 373.3 643 320 641.8C266.7 640.7 213.3 638.3 160 634.8C106.7 631.3 53.3 626.7 26.7 624.3L0 622Z" fill="#000031"></path></svg>