<svg id="visual" viewBox="0 0 1920 1080" width="1920" height="1080" xmlns="http://www.w3.org/2000/svg" xmlns:xlink="http://www.w3.org/1999/xlink" version="1.1"><g stroke-width="1" stroke-linejoin="bevel"><path d="M997 511L1062.1 508L972 395Z" fill="#1f728f" stroke="#1f728f"></path><path d="M1062.1 508L1070.1 370L972 395Z" fill="#2284a2" stroke="#2284a2"></path><path d="M1062.1 508L1205.3 422L1070.1 370Z" fill="#00121f" stroke="#00121f"></path><path d="M972 395L823.9 442L997 511Z" fill="#29bddc" stroke="#29bddc"></path><path d="M1054.1 240L919 272L972 395Z" fill="#1c607b" stroke="#1c607b"></path><path d="M972 395L919 272L823.9 442Z" fill="#00121f" stroke="#00121f"></path><path d="M1054.1 240L972 395L1070.1 370Z" fill="#27a9c9" stroke="#27a9c9"></path><path d="M1215.3 256L1054.1 240L1070.1 370Z" fill="#082030" stroke="#082030"></path><path d="M1074.1 679L1199.3 565L1062.1 508Z" fill="#00121f" stroke="#00121f"></path><path d="M1062.1 508L1199.3 565L1205.3 422Z" fill="#1c607b" stroke="#1c607b"></path><path d="M810.9 526L924 632L997 511Z" fill="#2284a2" stroke="#2284a2"></path><path d="M997 511L1074.1 679L1062.1 508Z" fill="#2496b6" stroke="#2496b6"></path><path d="M823.9 442L810.9 526L997 511Z" fill="#1f728f" stroke="#1f728f"></path><path d="M924 632L1074.1 679L997 511Z" fill="#29bddc" stroke="#29bddc"></path><path d="M919 162L861.9 256L919 272Z" fill="#2496b6" stroke="#2496b6"></path><path d="M919 272L861.9 256L823.9 442Z" fill="#1f728f" stroke="#1f728f"></path><path d="M1383.4 431L1215.3 256L1205.3 422Z" fill="#0e2f42" stroke="#0e2f42"></path><path d="M1205.3 422L1215.3 256L1070.1 370Z" fill="#1c607b" stroke="#1c607b"></path><path d="M1074.1 679L1245.3 647L1199.3 565Z" fill="#133f55" stroke="#133f55"></path><path d="M1199.3 565L1343.4 575L1205.3 422Z" fill="#1c607b" stroke="#1c607b"></path><path d="M1126.1 141L919 162L1054.1 240Z" fill="#1c607b" stroke="#1c607b"></path><path d="M1054.1 240L919 162L919 272Z" fill="#00121f" stroke="#00121f"></path><path d="M1215.3 256L1126.1 141L1054.1 240Z" fill="#2496b6" stroke="#2496b6"></path><path d="M823.9 442L704.7 510L810.9 526Z" fill="#2496b6" stroke="#2496b6"></path><path d="M810.9 526L803.9 702L924 632Z" fill="#27a9c9" stroke="#27a9c9"></path><path d="M670.7 391L704.7 510L823.9 442Z" fill="#0e2f42" stroke="#0e2f42"></path><path d="M670.7 391L823.9 442L861.9 256Z" fill="#2284a2" stroke="#2284a2"></path><path d="M1215.3 256L1198.3 151L1126.1 141Z" fill="#082030" stroke="#082030"></path><path d="M667.7 639L803.9 702L810.9 526Z" fill="#1c607b" stroke="#1c607b"></path><path d="M924 632L926 776L1074.1 679Z" fill="#0e2f42" stroke="#0e2f42"></path><path d="M1245.3 647L1343.4 575L1199.3 565Z" fill="#2284a2" stroke="#2284a2"></path><path d="M1215.3 256L1333.4 126L1198.3 151Z" fill="#2496b6" stroke="#2496b6"></path><path d="M803.9 702L926 776L924 632Z" fill="#00121f" stroke="#00121f"></path><path d="M1074.1 679L1199.3 774L1245.3 647Z" fill="#1c607b" stroke="#1c607b"></path><path d="M1343.4 575L1383.4 431L1205.3 422Z" fill="#00121f" stroke="#00121f"></path><path d="M666.7 235L670.7 391L861.9 256Z" fill="#082030" stroke="#082030"></path><path d="M864.9 0L818.9 143L919 162Z" fill="#2284a2" stroke="#2284a2"></path><path d="M919 162L818.9 143L861.9 256Z" fill="#0e2f42" stroke="#0e2f42"></path><path d="M926 776L1129.1 802L1074.1 679Z" fill="#0e2f42" stroke="#0e2f42"></path><path d="M1245.3 647L1354.4 640L1343.4 575Z" fill="#00121f" stroke="#00121f"></path><path d="M1129.1 802L1199.3 774L1074.1 679Z" fill="#29bddc" stroke="#29bddc"></path><path d="M1199.3 774L1354.4 640L1245.3 647Z" fill="#0e2f42" stroke="#0e2f42"></path><path d="M1343.4 575L1466.6 441L1383.4 431Z" fill="#2496b6" stroke="#2496b6"></path><path d="M704.7 510L667.7 639L810.9 526Z" fill="#1c607b" stroke="#1c607b"></path><path d="M803.9 702L820.9 821L926 776Z" fill="#2284a2" stroke="#2284a2"></path><path d="M554.6 521L667.7 639L704.7 510Z" fill="#29bddc" stroke="#29bddc"></path><path d="M1466.6 441L1407.4 280L1383.4 431Z" fill="#082030" stroke="#082030"></path><path d="M1383.4 431L1407.4 280L1215.3 256Z" fill="#29bddc" stroke="#29bddc"></path><path d="M818.9 143L666.7 235L861.9 256Z" fill="#082030" stroke="#082030"></path><path d="M670.7 391L572.6 438L704.7 510Z" fill="#27a9c9" stroke="#27a9c9"></path><path d="M683.7 841L820.9 821L803.9 702Z" fill="#1f728f" stroke="#1f728f"></path><path d="M926 776L1084.1 906L1129.1 802Z" fill="#184f68" stroke="#184f68"></path><path d="M1499.6 582L1466.6 441L1343.4 575Z" fill="#29bddc" stroke="#29bddc"></path><path d="M698.7 0L718.7 129L818.9 143Z" fill="#27a9c9" stroke="#27a9c9"></path><path d="M818.9 143L718.7 129L666.7 235Z" fill="#27a9c9" stroke="#27a9c9"></path><path d="M1407.4 280L1333.4 126L1215.3 256Z" fill="#1c607b" stroke="#1c607b"></path><path d="M1221.3 0L1072.1 0L1126.1 141Z" fill="#133f55" stroke="#133f55"></path><path d="M1126.1 141L1072.1 0L919 162Z" fill="#2496b6" stroke="#2496b6"></path><path d="M1221.3 0L1126.1 141L1198.3 151Z" fill="#082030" stroke="#082030"></path><path d="M1072.1 0L959 0L919 162Z" fill="#082030" stroke="#082030"></path><path d="M562.6 252L572.6 438L670.7 391Z" fill="#184f68" stroke="#184f68"></path><path d="M956 917L1084.1 906L926 776Z" fill="#27a9c9" stroke="#27a9c9"></path><path d="M1129.1 802L1217.3 926L1199.3 774Z" fill="#082030" stroke="#082030"></path><path d="M1528.6 704L1499.6 582L1354.4 640Z" fill="#082030" stroke="#082030"></path><path d="M959 0L864.9 0L919 162Z" fill="#0e2f42" stroke="#0e2f42"></path><path d="M572.6 438L554.6 521L704.7 510Z" fill="#2496b6" stroke="#2496b6"></path><path d="M667.7 639L683.7 841L803.9 702Z" fill="#27a9c9" stroke="#27a9c9"></path><path d="M820.9 821L956 917L926 776Z" fill="#27a9c9" stroke="#27a9c9"></path><path d="M1333.4 126L1221.3 0L1198.3 151Z" fill="#29bddc" stroke="#29bddc"></path><path d="M1374.4 850L1354.4 640L1199.3 774Z" fill="#082030" stroke="#082030"></path><path d="M1354.4 640L1499.6 582L1343.4 575Z" fill="#133f55" stroke="#133f55"></path><path d="M1466.6 441L1488.6 271L1407.4 280Z" fill="#133f55" stroke="#133f55"></path><path d="M1407.4 280L1521.6 112L1333.4 126Z" fill="#27a9c9" stroke="#27a9c9"></path><path d="M1333.4 126L1375.4 0L1221.3 0Z" fill="#27a9c9" stroke="#27a9c9"></path><path d="M1637.7 379L1488.6 271L1466.6 441Z" fill="#1f728f" stroke="#1f728f"></path><path d="M666.7 235L562.6 252L670.7 391Z" fill="#27a9c9" stroke="#27a9c9"></path><path d="M395.4 532L443.4 635L554.6 521Z" fill="#2284a2" stroke="#2284a2"></path><path d="M588.6 140L562.6 252L666.7 235Z" fill="#1f728f" stroke="#1f728f"></path><path d="M588.6 140L666.7 235L718.7 129Z" fill="#133f55" stroke="#133f55"></path><path d="M1102.1 1080L1217.3 926L1084.1 906Z" fill="#184f68" stroke="#184f68"></path><path d="M1084.1 906L1217.3 926L1129.1 802Z" fill="#0e2f42" stroke="#0e2f42"></path><path d="M578.6 850L683.7 841L667.7 639Z" fill="#0e2f42" stroke="#0e2f42"></path><path d="M820.9 821L802.9 958L956 917Z" fill="#1f728f" stroke="#1f728f"></path><path d="M698.7 0L588.6 140L718.7 129Z" fill="#2496b6" stroke="#2496b6"></path><path d="M1217.3 926L1374.4 850L1199.3 774Z" fill="#133f55" stroke="#133f55"></path><path d="M864.9 0L698.7 0L818.9 143Z" fill="#29bddc" stroke="#29bddc"></path><path d="M683.7 841L802.9 958L820.9 821Z" fill="#082030" stroke="#082030"></path><path d="M956 917L965 1080L1084.1 906Z" fill="#29bddc" stroke="#29bddc"></path><path d="M1521.6 112L1375.4 0L1333.4 126Z" fill="#1c607b" stroke="#1c607b"></path><path d="M1374.4 850L1528.6 704L1354.4 640Z" fill="#00121f" stroke="#00121f"></path><path d="M1499.6 582L1607.7 552L1466.6 441Z" fill="#2496b6" stroke="#2496b6"></path><path d="M554.6 521L505.6 717L667.7 639Z" fill="#27a9c9" stroke="#27a9c9"></path><path d="M683.7 841L679.7 926L802.9 958Z" fill="#1c607b" stroke="#1c607b"></path><path d="M443.4 635L505.6 717L554.6 521Z" fill="#082030" stroke="#082030"></path><path d="M1528.6 704L1607.7 552L1499.6 582Z" fill="#2496b6" stroke="#2496b6"></path><path d="M1488.6 271L1521.6 112L1407.4 280Z" fill="#133f55" stroke="#133f55"></path><path d="M578.6 850L679.7 926L683.7 841Z" fill="#0e2f42" stroke="#0e2f42"></path><path d="M1658.7 153L1521.6 112L1488.6 271Z" fill="#184f68" stroke="#184f68"></path><path d="M505.6 717L578.6 850L667.7 639Z" fill="#1c607b" stroke="#1c607b"></path><path d="M396.4 431L572.6 438L562.6 252Z" fill="#082030" stroke="#082030"></path><path d="M396.4 431L554.6 521L572.6 438Z" fill="#1f728f" stroke="#1f728f"></path><path d="M398.4 850L551.6 927L578.6 850Z" fill="#27a9c9" stroke="#27a9c9"></path><path d="M1607.7 552L1637.7 379L1466.6 441Z" fill="#1f728f" stroke="#1f728f"></path><path d="M1374.4 850L1542.6 783L1528.6 704Z" fill="#00121f" stroke="#00121f"></path><path d="M1528.6 704L1652.7 665L1607.7 552Z" fill="#00121f" stroke="#00121f"></path><path d="M1523.6 908L1542.6 783L1374.4 850Z" fill="#2496b6" stroke="#2496b6"></path><path d="M1217.3 926L1384.4 957L1374.4 850Z" fill="#2284a2" stroke="#2284a2"></path><path d="M1344.4 1080L1384.4 957L1217.3 926Z" fill="#184f68" stroke="#184f68"></path><path d="M380.4 261L396.4 431L562.6 252Z" fill="#2496b6" stroke="#2496b6"></path><path d="M698.7 0L575.6 0L588.6 140Z" fill="#1f728f" stroke="#1f728f"></path><path d="M588.6 140L439.4 119L562.6 252Z" fill="#1c607b" stroke="#1c607b"></path><path d="M1661.7 0L1481.6 0L1521.6 112Z" fill="#1f728f" stroke="#1f728f"></path><path d="M1521.6 112L1481.6 0L1375.4 0Z" fill="#082030" stroke="#082030"></path><path d="M396.4 431L395.4 532L554.6 521Z" fill="#082030" stroke="#082030"></path><path d="M844.9 1080L956 917L802.9 958Z" fill="#082030" stroke="#082030"></path><path d="M844.9 1080L965 1080L956 917Z" fill="#0e2f42" stroke="#0e2f42"></path><path d="M965 1080L1102.1 1080L1084.1 906Z" fill="#0e2f42" stroke="#0e2f42"></path><path d="M1790.9 392L1657.7 301L1637.7 379Z" fill="#1c607b" stroke="#1c607b"></path><path d="M1637.7 379L1657.7 301L1488.6 271Z" fill="#0e2f42" stroke="#0e2f42"></path><path d="M685.7 1080L844.9 1080L802.9 958Z" fill="#27a9c9" stroke="#27a9c9"></path><path d="M685.7 1080L802.9 958L679.7 926Z" fill="#133f55" stroke="#133f55"></path><path d="M1542.6 783L1652.7 665L1528.6 704Z" fill="#0e2f42" stroke="#0e2f42"></path><path d="M1803.9 543L1790.9 392L1637.7 379Z" fill="#2284a2" stroke="#2284a2"></path><path d="M1660.7 795L1652.7 665L1542.6 783Z" fill="#2496b6" stroke="#2496b6"></path><path d="M1102.1 1080L1232.3 1080L1217.3 926Z" fill="#1c607b" stroke="#1c607b"></path><path d="M575.6 0L439.4 119L588.6 140Z" fill="#1c607b" stroke="#1c607b"></path><path d="M439.4 119L380.4 261L562.6 252Z" fill="#184f68" stroke="#184f68"></path><path d="M396.4 431L279.3 552L395.4 532Z" fill="#27a9c9" stroke="#27a9c9"></path><path d="M398.4 850L578.6 850L505.6 717Z" fill="#29bddc" stroke="#29bddc"></path><path d="M578.6 850L551.6 927L679.7 926Z" fill="#0e2f42" stroke="#0e2f42"></path><path d="M398.4 850L505.6 717L298.3 787Z" fill="#082030" stroke="#082030"></path><path d="M1549.6 1080L1523.6 908L1384.4 957Z" fill="#133f55" stroke="#133f55"></path><path d="M1384.4 957L1523.6 908L1374.4 850Z" fill="#1f728f" stroke="#1f728f"></path><path d="M1657.7 301L1658.7 153L1488.6 271Z" fill="#2284a2" stroke="#2284a2"></path><path d="M1232.3 1080L1344.4 1080L1217.3 926Z" fill="#27a9c9" stroke="#27a9c9"></path><path d="M560.6 1080L685.7 1080L679.7 926Z" fill="#2496b6" stroke="#2496b6"></path><path d="M1616.7 953L1660.7 795L1523.6 908Z" fill="#27a9c9" stroke="#27a9c9"></path><path d="M1523.6 908L1660.7 795L1542.6 783Z" fill="#29bddc" stroke="#29bddc"></path><path d="M1803.9 543L1637.7 379L1607.7 552Z" fill="#082030" stroke="#082030"></path><path d="M1657.7 301L1800.9 242L1658.7 153Z" fill="#29bddc" stroke="#29bddc"></path><path d="M277.3 164L304.3 264L380.4 261Z" fill="#29bddc" stroke="#29bddc"></path><path d="M380.4 261L304.3 264L396.4 431Z" fill="#133f55" stroke="#133f55"></path><path d="M298.3 787L505.6 717L443.4 635Z" fill="#00121f" stroke="#00121f"></path><path d="M551.6 927L560.6 1080L679.7 926Z" fill="#133f55" stroke="#133f55"></path><path d="M279.3 552L443.4 635L395.4 532Z" fill="#29bddc" stroke="#29bddc"></path><path d="M251.3 422L279.3 552L396.4 431Z" fill="#0e2f42" stroke="#0e2f42"></path><path d="M575.6 0L405.4 0L439.4 119Z" fill="#00121f" stroke="#00121f"></path><path d="M439.4 119L277.3 164L380.4 261Z" fill="#0e2f42" stroke="#0e2f42"></path><path d="M1803.9 543L1607.7 552L1652.7 665Z" fill="#2284a2" stroke="#2284a2"></path><path d="M1658.7 153L1661.7 0L1521.6 112Z" fill="#2496b6" stroke="#2496b6"></path><path d="M1787.9 124L1661.7 0L1658.7 153Z" fill="#1f728f" stroke="#1f728f"></path><path d="M304.3 264L251.3 422L396.4 431Z" fill="#2284a2" stroke="#2284a2"></path><path d="M1549.6 1080L1616.7 953L1523.6 908Z" fill="#00121f" stroke="#00121f"></path><path d="M1818.9 709L1803.9 543L1652.7 665Z" fill="#00121f" stroke="#00121f"></path><path d="M239.3 968L426.4 944L398.4 850Z" fill="#1c607b" stroke="#1c607b"></path><path d="M398.4 850L426.4 944L551.6 927Z" fill="#2284a2" stroke="#2284a2"></path><path d="M1760.9 807L1652.7 665L1660.7 795Z" fill="#2284a2" stroke="#2284a2"></path><path d="M426.4 944L560.6 1080L551.6 927Z" fill="#2284a2" stroke="#2284a2"></path><path d="M141.1 678L264.3 669L279.3 552Z" fill="#2496b6" stroke="#2496b6"></path><path d="M279.3 552L264.3 669L443.4 635Z" fill="#1f728f" stroke="#1f728f"></path><path d="M304.3 264L162.1 368L251.3 422Z" fill="#27a9c9" stroke="#27a9c9"></path><path d="M405.4 0L277.3 164L439.4 119Z" fill="#00121f" stroke="#00121f"></path><path d="M1920 308L1800.9 242L1790.9 392Z" fill="#2496b6" stroke="#2496b6"></path><path d="M1790.9 392L1800.9 242L1657.7 301Z" fill="#2284a2" stroke="#2284a2"></path><path d="M264.3 669L298.3 787L443.4 635Z" fill="#1c607b" stroke="#1c607b"></path><path d="M1759.9 911L1760.9 807L1660.7 795Z" fill="#184f68" stroke="#184f68"></path><path d="M1344.4 1080L1549.6 1080L1384.4 957Z" fill="#29bddc" stroke="#29bddc"></path><path d="M1616.7 953L1759.9 911L1660.7 795Z" fill="#00121f" stroke="#00121f"></path><path d="M1800.9 242L1787.9 124L1658.7 153Z" fill="#2496b6" stroke="#2496b6"></path><path d="M1760.9 807L1818.9 709L1652.7 665Z" fill="#2284a2" stroke="#2284a2"></path><path d="M1803.9 543L1920 427L1790.9 392Z" fill="#184f68" stroke="#184f68"></path><path d="M113.1 303L162.1 368L304.3 264Z" fill="#2496b6" stroke="#2496b6"></path><path d="M251.3 422L121.1 499L279.3 552Z" fill="#29bddc" stroke="#29bddc"></path><path d="M264.3 669L158.1 769L298.3 787Z" fill="#00121f" stroke="#00121f"></path><path d="M1787.9 124L1773.9 0L1661.7 0Z" fill="#1c607b" stroke="#1c607b"></path><path d="M1684.7 1080L1759.9 911L1616.7 953Z" fill="#133f55" stroke="#133f55"></path><path d="M1920 785L1920 676L1818.9 709Z" fill="#29bddc" stroke="#29bddc"></path><path d="M263.3 1080L418.4 1080L426.4 944Z" fill="#184f68" stroke="#184f68"></path><path d="M426.4 944L418.4 1080L560.6 1080Z" fill="#2284a2" stroke="#2284a2"></path><path d="M405.4 0L265.3 0L277.3 164Z" fill="#1f728f" stroke="#1f728f"></path><path d="M121.1 171L113.1 303L304.3 264Z" fill="#1f728f" stroke="#1f728f"></path><path d="M1800.9 242L1920 112L1787.9 124Z" fill="#00121f" stroke="#00121f"></path><path d="M1787.9 124L1920 0L1773.9 0Z" fill="#2496b6" stroke="#2496b6"></path><path d="M1920 561L1920 427L1803.9 543Z" fill="#2496b6" stroke="#2496b6"></path><path d="M1920 561L1803.9 543L1920 676Z" fill="#133f55" stroke="#133f55"></path><path d="M1920 676L1803.9 543L1818.9 709Z" fill="#2496b6" stroke="#2496b6"></path><path d="M1920 427L1920 308L1790.9 392Z" fill="#184f68" stroke="#184f68"></path><path d="M162.1 368L121.1 499L251.3 422Z" fill="#184f68" stroke="#184f68"></path><path d="M298.3 787L239.3 968L398.4 850Z" fill="#1c607b" stroke="#1c607b"></path><path d="M0 362L121.1 499L162.1 368Z" fill="#184f68" stroke="#184f68"></path><path d="M1549.6 1080L1684.7 1080L1616.7 953Z" fill="#184f68" stroke="#184f68"></path><path d="M1920 785L1818.9 709L1760.9 807Z" fill="#2284a2" stroke="#2284a2"></path><path d="M121.1 499L141.1 678L279.3 552Z" fill="#00121f" stroke="#00121f"></path><path d="M1920 785L1760.9 807L1759.9 911Z" fill="#133f55" stroke="#133f55"></path><path d="M121.1 171L304.3 264L277.3 164Z" fill="#133f55" stroke="#133f55"></path><path d="M141.1 678L158.1 769L264.3 669Z" fill="#133f55" stroke="#133f55"></path><path d="M145.1 0L121.1 171L277.3 164Z" fill="#0e2f42" stroke="#0e2f42"></path><path d="M158.1 769L239.3 968L298.3 787Z" fill="#1c607b" stroke="#1c607b"></path><path d="M1920 308L1920 112L1800.9 242Z" fill="#133f55" stroke="#133f55"></path><path d="M1920 965L1920 785L1759.9 911Z" fill="#184f68" stroke="#184f68"></path><path d="M1684.7 1080L1771.9 1080L1759.9 911Z" fill="#27a9c9" stroke="#27a9c9"></path><path d="M265.3 0L145.1 0L277.3 164Z" fill="#2284a2" stroke="#2284a2"></path><path d="M135.1 1080L263.3 1080L239.3 968Z" fill="#00121f" stroke="#00121f"></path><path d="M239.3 968L263.3 1080L426.4 944Z" fill="#1f728f" stroke="#1f728f"></path><path d="M1920 112L1920 0L1787.9 124Z" fill="#133f55" stroke="#133f55"></path><path d="M158.1 769L128.1 937L239.3 968Z" fill="#2284a2" stroke="#2284a2"></path><path d="M0 829L128.1 937L158.1 769Z" fill="#2496b6" stroke="#2496b6"></path><path d="M0 829L158.1 769L141.1 678Z" fill="#133f55" stroke="#133f55"></path><path d="M0 560L141.1 678L121.1 499Z" fill="#184f68" stroke="#184f68"></path><path d="M0 279L0 362L113.1 303Z" fill="#184f68" stroke="#184f68"></path><path d="M113.1 303L0 362L162.1 368Z" fill="#0e2f42" stroke="#0e2f42"></path><path d="M0 279L113.1 303L121.1 171Z" fill="#133f55" stroke="#133f55"></path><path d="M0 362L0 560L121.1 499Z" fill="#1c607b" stroke="#1c607b"></path><path d="M1771.9 1080L1920 965L1759.9 911Z" fill="#27a9c9" stroke="#27a9c9"></path><path d="M0 135L0 279L121.1 171Z" fill="#184f68" stroke="#184f68"></path><path d="M0 560L0 638L141.1 678Z" fill="#133f55" stroke="#133f55"></path><path d="M145.1 0L0 135L121.1 171Z" fill="#133f55" stroke="#133f55"></path><path d="M0 962L135.1 1080L128.1 937Z" fill="#2496b6" stroke="#2496b6"></path><path d="M128.1 937L135.1 1080L239.3 968Z" fill="#29bddc" stroke="#29bddc"></path><path d="M0 638L0 829L141.1 678Z" fill="#1c607b" stroke="#1c607b"></path><path d="M1771.9 1080L1920 1080L1920 965Z" fill="#0e2f42" stroke="#0e2f42"></path><path d="M145.1 0L0 0L0 135Z" fill="#184f68" stroke="#184f68"></path><path d="M0 829L0 962L128.1 937Z" fill="#1f728f" stroke="#1f728f"></path><path d="M0 962L0 1080L135.1 1080Z" fill="#2284a2" stroke="#2284a2"></path></g></svg>