<svg id="visual" viewBox="0 0 960 540" width="960" height="540" xmlns="http://www.w3.org/2000/svg" xmlns:xlink="http://www.w3.org/1999/xlink" version="1.1"><g stroke-width="1" stroke-linejoin="bevel"><path d="M460 274L449.4 311L535.6 301.5Z" fill="#082030" stroke="#082030"></path><path d="M535.6 301.5L529.6 264L460 274Z" fill="#2496b6" stroke="#2496b6"></path><path d="M529.6 264L523.6 232.5L460 274Z" fill="#133f55" stroke="#133f55"></path><path d="M449.4 311L515 382L535.6 301.5Z" fill="#1f728f" stroke="#1f728f"></path><path d="M449.4 311L443 373.5L515 382Z" fill="#1f728f" stroke="#1f728f"></path><path d="M460 274L399.4 326.5L449.4 311Z" fill="#00121f" stroke="#00121f"></path><path d="M449.4 311L399.4 326.5L443 373.5Z" fill="#184f68" stroke="#184f68"></path><path d="M515 382L577.1 367.5L535.6 301.5Z" fill="#29bddc" stroke="#29bddc"></path><path d="M535.6 301.5L601.1 297L529.6 264Z" fill="#184f68" stroke="#184f68"></path><path d="M529.6 264L587.1 216.5L523.6 232.5Z" fill="#184f68" stroke="#184f68"></path><path d="M577.1 367.5L601.1 297L535.6 301.5Z" fill="#29bddc" stroke="#29bddc"></path><path d="M453 161.5L402.4 230.5L460 274Z" fill="#1f728f" stroke="#1f728f"></path><path d="M460 274L402.4 230.5L399.4 326.5Z" fill="#1c607b" stroke="#1c607b"></path><path d="M515 382L553.6 406L577.1 367.5Z" fill="#184f68" stroke="#184f68"></path><path d="M462 478.5L553.6 406L515 382Z" fill="#184f68" stroke="#184f68"></path><path d="M601.1 297L587.1 216.5L529.6 264Z" fill="#0e2f42" stroke="#0e2f42"></path><path d="M523.6 232.5L453 161.5L460 274Z" fill="#2496b6" stroke="#2496b6"></path><path d="M399.4 326.5L368.9 381L443 373.5Z" fill="#1f728f" stroke="#1f728f"></path><path d="M443 373.5L462 478.5L515 382Z" fill="#0e2f42" stroke="#0e2f42"></path><path d="M356.9 374.5L368.9 381L399.4 326.5Z" fill="#184f68" stroke="#184f68"></path><path d="M511 125L453 161.5L523.6 232.5Z" fill="#2496b6" stroke="#2496b6"></path><path d="M453 161.5L378.9 204.5L402.4 230.5Z" fill="#184f68" stroke="#184f68"></path><path d="M402.4 230.5L329.9 235L399.4 326.5Z" fill="#133f55" stroke="#133f55"></path><path d="M329.9 235L356.9 374.5L399.4 326.5Z" fill="#2496b6" stroke="#2496b6"></path><path d="M378.9 204.5L329.9 235L402.4 230.5Z" fill="#2496b6" stroke="#2496b6"></path><path d="M377.4 444L443 373.5L368.9 381Z" fill="#2496b6" stroke="#2496b6"></path><path d="M377.4 444L462 478.5L443 373.5Z" fill="#184f68" stroke="#184f68"></path><path d="M606.1 474.5L649.1 388L553.6 406Z" fill="#00121f" stroke="#00121f"></path><path d="M553.6 406L649.1 388L577.1 367.5Z" fill="#00121f" stroke="#00121f"></path><path d="M577.1 367.5L649.1 388L601.1 297Z" fill="#184f68" stroke="#184f68"></path><path d="M601.1 297L671.7 241L587.1 216.5Z" fill="#1c607b" stroke="#1c607b"></path><path d="M587.1 216.5L511 125L523.6 232.5Z" fill="#133f55" stroke="#133f55"></path><path d="M453 161.5L436.4 108L378.9 204.5Z" fill="#29bddc" stroke="#29bddc"></path><path d="M356.9 374.5L377.4 444L368.9 381Z" fill="#2284a2" stroke="#2284a2"></path><path d="M715.3 314.5L671.7 241L601.1 297Z" fill="#2496b6" stroke="#2496b6"></path><path d="M587.1 216.5L588.6 124L511 125Z" fill="#1f728f" stroke="#1f728f"></path><path d="M671.7 241L655.7 200.5L587.1 216.5Z" fill="#0e2f42" stroke="#0e2f42"></path><path d="M511 125L436.4 108L453 161.5Z" fill="#00121f" stroke="#00121f"></path><path d="M243.3 170.5L233.3 236L329.9 235Z" fill="#133f55" stroke="#133f55"></path><path d="M643.7 133L588.6 124L587.1 216.5Z" fill="#27a9c9" stroke="#27a9c9"></path><path d="M511 125L442.4 99.5L436.4 108Z" fill="#0e2f42" stroke="#0e2f42"></path><path d="M649.1 388L691.7 347.5L601.1 297Z" fill="#1f728f" stroke="#1f728f"></path><path d="M505.6 511.5L606.1 474.5L553.6 406Z" fill="#29bddc" stroke="#29bddc"></path><path d="M649.1 388L698.7 414L691.7 347.5Z" fill="#1c607b" stroke="#1c607b"></path><path d="M588.6 124L519.6 98.5L511 125Z" fill="#29bddc" stroke="#29bddc"></path><path d="M405.4 540L505.6 511.5L462 478.5Z" fill="#0e2f42" stroke="#0e2f42"></path><path d="M462 478.5L505.6 511.5L553.6 406Z" fill="#2496b6" stroke="#2496b6"></path><path d="M519.6 98.5L442.4 99.5L511 125Z" fill="#133f55" stroke="#133f55"></path><path d="M233.3 236L232.3 322.5L329.9 235Z" fill="#133f55" stroke="#133f55"></path><path d="M755.3 384L715.3 314.5L691.7 347.5Z" fill="#184f68" stroke="#184f68"></path><path d="M691.7 347.5L715.3 314.5L601.1 297Z" fill="#133f55" stroke="#133f55"></path><path d="M727.3 201.5L643.7 133L655.7 200.5Z" fill="#184f68" stroke="#184f68"></path><path d="M377.4 444L405.4 510.5L462 478.5Z" fill="#1f728f" stroke="#1f728f"></path><path d="M356.9 374.5L294.3 415L377.4 444Z" fill="#1c607b" stroke="#1c607b"></path><path d="M377.4 444L302.3 496.5L405.4 510.5Z" fill="#0e2f42" stroke="#0e2f42"></path><path d="M243.7 355.5L294.3 415L356.9 374.5Z" fill="#2284a2" stroke="#2284a2"></path><path d="M655.7 200.5L643.7 133L587.1 216.5Z" fill="#2284a2" stroke="#2284a2"></path><path d="M588.6 124L568.6 0L519.6 98.5Z" fill="#1c607b" stroke="#1c607b"></path><path d="M727.3 201.5L655.7 200.5L671.7 241Z" fill="#133f55" stroke="#133f55"></path><path d="M694.7 464.5L698.7 414L649.1 388Z" fill="#0e2f42" stroke="#0e2f42"></path><path d="M405.4 540L518 540L505.6 511.5Z" fill="#29bddc" stroke="#29bddc"></path><path d="M505.6 511.5L521.6 540L606.1 474.5Z" fill="#0e2f42" stroke="#0e2f42"></path><path d="M606.1 474.5L694.7 464.5L649.1 388Z" fill="#133f55" stroke="#133f55"></path><path d="M518 540L521.6 540L505.6 511.5Z" fill="#00121f" stroke="#00121f"></path><path d="M643.7 133L623.1 101L588.6 124Z" fill="#2496b6" stroke="#2496b6"></path><path d="M294.3 415L305.9 461.5L377.4 444Z" fill="#1c607b" stroke="#1c607b"></path><path d="M314.9 540L405.4 540L405.4 510.5Z" fill="#1f728f" stroke="#1f728f"></path><path d="M405.4 510.5L405.4 540L462 478.5Z" fill="#1f728f" stroke="#1f728f"></path><path d="M232.3 322.5L243.7 355.5L356.9 374.5Z" fill="#184f68" stroke="#184f68"></path><path d="M211.7 446.5L302.3 496.5L305.9 461.5Z" fill="#1c607b" stroke="#1c607b"></path><path d="M715.3 314.5L727.3 201.5L671.7 241Z" fill="#133f55" stroke="#133f55"></path><path d="M643.7 133L656.1 58.5L623.1 101Z" fill="#0e2f42" stroke="#0e2f42"></path><path d="M657.1 540L694.7 464.5L606.1 474.5Z" fill="#1c607b" stroke="#1c607b"></path><path d="M698.7 414L755.3 384L691.7 347.5Z" fill="#0e2f42" stroke="#0e2f42"></path><path d="M329.9 235L232.3 322.5L356.9 374.5Z" fill="#133f55" stroke="#133f55"></path><path d="M329.9 235L378.9 204.5L306.9 109Z" fill="#2496b6" stroke="#2496b6"></path><path d="M519.6 98.5L449 40.5L442.4 99.5Z" fill="#1c607b" stroke="#1c607b"></path><path d="M442.4 99.5L449 40.5L436.4 108Z" fill="#184f68" stroke="#184f68"></path><path d="M457 0L449 40.5L568.6 0Z" fill="#1f728f" stroke="#1f728f"></path><path d="M306.9 109L378.9 204.5L436.4 108Z" fill="#2496b6" stroke="#2496b6"></path><path d="M307.9 46.5L306.9 109L436.4 108Z" fill="#29bddc" stroke="#29bddc"></path><path d="M224.7 431L305.9 461.5L294.3 415Z" fill="#1f728f" stroke="#1f728f"></path><path d="M305.9 461.5L302.3 496.5L377.4 444Z" fill="#133f55" stroke="#133f55"></path><path d="M806.9 450.5L755.3 384L698.7 414Z" fill="#2496b6" stroke="#2496b6"></path><path d="M715.3 314.5L771.3 300L727.3 201.5Z" fill="#0e2f42" stroke="#0e2f42"></path><path d="M755.3 384L771.3 300L715.3 314.5Z" fill="#0e2f42" stroke="#0e2f42"></path><path d="M243.3 170.5L223.7 226.5L233.3 236Z" fill="#1f728f" stroke="#1f728f"></path><path d="M233.3 236L196.7 251L232.3 322.5Z" fill="#184f68" stroke="#184f68"></path><path d="M254.3 148L243.3 170.5L329.9 235Z" fill="#27a9c9" stroke="#27a9c9"></path><path d="M306.9 109L254.3 148L329.9 235Z" fill="#27a9c9" stroke="#27a9c9"></path><path d="M521.6 540L657.1 540L606.1 474.5Z" fill="#27a9c9" stroke="#27a9c9"></path><path d="M694.7 464.5L806.9 450.5L698.7 414Z" fill="#2496b6" stroke="#2496b6"></path><path d="M734.3 113L656.1 58.5L643.7 133Z" fill="#0e2f42" stroke="#0e2f42"></path><path d="M623.1 101L568.6 0L588.6 124Z" fill="#2496b6" stroke="#2496b6"></path><path d="M242.3 540L314.9 540L302.3 496.5Z" fill="#0e2f42" stroke="#0e2f42"></path><path d="M302.3 496.5L314.9 540L405.4 510.5Z" fill="#29bddc" stroke="#29bddc"></path><path d="M175.1 322.5L224.7 431L243.7 355.5Z" fill="#082030" stroke="#082030"></path><path d="M243.7 355.5L224.7 431L294.3 415Z" fill="#2496b6" stroke="#2496b6"></path><path d="M211.7 446.5L224.7 431L101.1 384Z" fill="#0e2f42" stroke="#0e2f42"></path><path d="M147.1 232.5L196.7 251L223.7 226.5Z" fill="#082030" stroke="#082030"></path><path d="M223.7 226.5L196.7 251L233.3 236Z" fill="#00121f" stroke="#00121f"></path><path d="M147.1 232.5L223.7 226.5L154.1 126Z" fill="#1c607b" stroke="#1c607b"></path><path d="M568.6 0L449 40.5L519.6 98.5Z" fill="#1c607b" stroke="#1c607b"></path><path d="M344.9 0L307.9 46.5L436.4 108Z" fill="#29bddc" stroke="#29bddc"></path><path d="M457 0L442.4 0L449 40.5Z" fill="#0e2f42" stroke="#0e2f42"></path><path d="M306.9 109L248.3 87.5L254.3 148Z" fill="#1c607b" stroke="#1c607b"></path><path d="M727.3 201.5L734.3 113L643.7 133Z" fill="#1c607b" stroke="#1c607b"></path><path d="M765.3 109.5L734.3 113L727.3 201.5Z" fill="#29bddc" stroke="#29bddc"></path><path d="M608.1 0L568.6 0L623.1 101Z" fill="#29bddc" stroke="#29bddc"></path><path d="M856.9 359.5L804.9 290L771.3 300Z" fill="#0e2f42" stroke="#0e2f42"></path><path d="M771.3 300L804.9 290L727.3 201.5Z" fill="#0e2f42" stroke="#0e2f42"></path><path d="M224.7 431L211.7 446.5L305.9 461.5Z" fill="#00121f" stroke="#00121f"></path><path d="M175.1 322.5L243.7 355.5L232.3 322.5Z" fill="#184f68" stroke="#184f68"></path><path d="M344.9 0L436.4 108L449 40.5Z" fill="#27a9c9" stroke="#27a9c9"></path><path d="M254.3 148L166.7 116L243.3 170.5Z" fill="#1c607b" stroke="#1c607b"></path><path d="M196.7 251L175.1 322.5L232.3 322.5Z" fill="#00121f" stroke="#00121f"></path><path d="M657.1 540L708.7 540L694.7 464.5Z" fill="#082030" stroke="#082030"></path><path d="M755.3 384L856.9 359.5L771.3 300Z" fill="#0e2f42" stroke="#0e2f42"></path><path d="M656.1 58.5L608.1 0L623.1 101Z" fill="#2496b6" stroke="#2496b6"></path><path d="M706.7 0L608.1 0L656.1 58.5Z" fill="#29bddc" stroke="#29bddc"></path><path d="M307.9 46.5L248.3 87.5L306.9 109Z" fill="#0e2f42" stroke="#0e2f42"></path><path d="M812.9 197.5L765.3 109.5L727.3 201.5Z" fill="#133f55" stroke="#133f55"></path><path d="M734.3 113L723.7 35.5L656.1 58.5Z" fill="#0e2f42" stroke="#0e2f42"></path><path d="M442.4 0L344.9 0L449 40.5Z" fill="#00121f" stroke="#00121f"></path><path d="M307.9 46.5L219.7 54.5L248.3 87.5Z" fill="#2496b6" stroke="#2496b6"></path><path d="M804.9 290L812.9 197.5L727.3 201.5Z" fill="#29bddc" stroke="#29bddc"></path><path d="M211.7 446.5L242.3 540L302.3 496.5Z" fill="#2496b6" stroke="#2496b6"></path><path d="M796.3 487.5L806.9 450.5L694.7 464.5Z" fill="#1c607b" stroke="#1c607b"></path><path d="M804.9 290L897.4 279L812.9 197.5Z" fill="#27a9c9" stroke="#27a9c9"></path><path d="M154.1 126L223.7 226.5L243.3 170.5Z" fill="#29bddc" stroke="#29bddc"></path><path d="M196.7 251L147.1 232.5L175.1 322.5Z" fill="#2284a2" stroke="#2284a2"></path><path d="M179.1 540L226.7 540L211.7 446.5Z" fill="#00121f" stroke="#00121f"></path><path d="M765.3 109.5L723.7 35.5L734.3 113Z" fill="#2284a2" stroke="#2284a2"></path><path d="M765.3 540L796.3 487.5L694.7 464.5Z" fill="#184f68" stroke="#184f68"></path><path d="M179.1 540L211.7 446.5L131.1 502.5Z" fill="#1c607b" stroke="#1c607b"></path><path d="M211.7 446.5L226.7 540L242.3 540Z" fill="#2284a2" stroke="#2284a2"></path><path d="M708.7 540L765.3 540L694.7 464.5Z" fill="#082030" stroke="#082030"></path><path d="M344.9 0L291.3 0L307.9 46.5Z" fill="#1f728f" stroke="#1f728f"></path><path d="M248.3 87.5L166.7 116L254.3 148Z" fill="#1c607b" stroke="#1c607b"></path><path d="M291.3 0L219.7 54.5L307.9 46.5Z" fill="#00121f" stroke="#00121f"></path><path d="M848.9 409L755.3 384L806.9 450.5Z" fill="#1f728f" stroke="#1f728f"></path><path d="M848.9 409L856.9 359.5L755.3 384Z" fill="#2284a2" stroke="#2284a2"></path><path d="M744.3 0L723.7 35.5L832.9 57.5Z" fill="#2496b6" stroke="#2496b6"></path><path d="M744.3 0L706.7 0L723.7 35.5Z" fill="#1c607b" stroke="#1c607b"></path><path d="M723.7 35.5L706.7 0L656.1 58.5Z" fill="#0e2f42" stroke="#0e2f42"></path><path d="M932.4 461.5L848.9 409L806.9 450.5Z" fill="#0e2f42" stroke="#0e2f42"></path><path d="M932.4 461.5L806.9 450.5L905.4 540Z" fill="#082030" stroke="#082030"></path><path d="M219.7 54.5L166.7 116L248.3 87.5Z" fill="#1f728f" stroke="#1f728f"></path><path d="M171.1 58.5L154.1 126L166.7 116Z" fill="#133f55" stroke="#133f55"></path><path d="M166.7 116L154.1 126L243.3 170.5Z" fill="#2496b6" stroke="#2496b6"></path><path d="M881.4 393L873.4 326.5L856.9 359.5Z" fill="#27a9c9" stroke="#27a9c9"></path><path d="M856.9 359.5L873.4 326.5L804.9 290Z" fill="#0e2f42" stroke="#0e2f42"></path><path d="M101.1 384L224.7 431L175.1 322.5Z" fill="#27a9c9" stroke="#27a9c9"></path><path d="M832.9 57.5L723.7 35.5L765.3 109.5Z" fill="#0e2f42" stroke="#0e2f42"></path><path d="M845.9 120L765.3 109.5L812.9 197.5Z" fill="#00121f" stroke="#00121f"></path><path d="M903.4 197.5L862.4 159L812.9 197.5Z" fill="#2284a2" stroke="#2284a2"></path><path d="M862.4 159L845.9 120L812.9 197.5Z" fill="#29bddc" stroke="#29bddc"></path><path d="M99.1 229L99.6 234L147.1 232.5Z" fill="#27a9c9" stroke="#27a9c9"></path><path d="M147.1 232.5L99.6 234L175.1 322.5Z" fill="#00121f" stroke="#00121f"></path><path d="M87.6 366L101.1 384L175.1 322.5Z" fill="#0e2f42" stroke="#0e2f42"></path><path d="M765.3 540L813.9 540L796.3 487.5Z" fill="#29bddc" stroke="#29bddc"></path><path d="M848.9 409L881.4 393L856.9 359.5Z" fill="#133f55" stroke="#133f55"></path><path d="M932.4 461.5L881.4 393L848.9 409Z" fill="#00121f" stroke="#00121f"></path><path d="M873.4 326.5L897.4 279L804.9 290Z" fill="#29bddc" stroke="#29bddc"></path><path d="M154.1 126L99.1 229L147.1 232.5Z" fill="#00121f" stroke="#00121f"></path><path d="M99.6 234L87.6 366L175.1 322.5Z" fill="#2496b6" stroke="#2496b6"></path><path d="M219.7 54.5L171.1 58.5L166.7 116Z" fill="#184f68" stroke="#184f68"></path><path d="M291.3 0L229.7 0L219.7 54.5Z" fill="#29bddc" stroke="#29bddc"></path><path d="M229.7 0L171.1 58.5L219.7 54.5Z" fill="#133f55" stroke="#133f55"></path><path d="M154.1 126L64.6 210.5L99.1 229Z" fill="#2284a2" stroke="#2284a2"></path><path d="M960 298L897.4 279L873.4 326.5Z" fill="#184f68" stroke="#184f68"></path><path d="M37.6 376.5L87.6 366L0 254Z" fill="#0e2f42" stroke="#0e2f42"></path><path d="M101.1 384L131.1 502.5L211.7 446.5Z" fill="#133f55" stroke="#133f55"></path><path d="M70.6 507.5L131.1 502.5L101.1 384Z" fill="#0e2f42" stroke="#0e2f42"></path><path d="M898.4 0L832.9 57.5L932.4 26.5Z" fill="#082030" stroke="#082030"></path><path d="M845.9 120L832.9 57.5L765.3 109.5Z" fill="#133f55" stroke="#133f55"></path><path d="M960 136L845.9 120L862.4 159Z" fill="#133f55" stroke="#133f55"></path><path d="M897.4 279L903.4 197.5L812.9 197.5Z" fill="#184f68" stroke="#184f68"></path><path d="M28.6 162L64.6 210.5L154.1 126Z" fill="#00121f" stroke="#00121f"></path><path d="M99.1 229L64.6 210.5L99.6 234Z" fill="#0e2f42" stroke="#0e2f42"></path><path d="M0 254L87.6 366L99.6 234Z" fill="#0e2f42" stroke="#0e2f42"></path><path d="M87.6 366L37.6 376.5L101.1 384Z" fill="#2284a2" stroke="#2284a2"></path><path d="M898.4 0L838.9 0L832.9 57.5Z" fill="#2496b6" stroke="#2496b6"></path><path d="M832.9 57.5L838.9 0L744.3 0Z" fill="#184f68" stroke="#184f68"></path><path d="M905.4 540L806.9 450.5L796.3 487.5Z" fill="#184f68" stroke="#184f68"></path><path d="M960 398L960 298L873.4 326.5Z" fill="#1c607b" stroke="#1c607b"></path><path d="M897.4 279L960 207.5L903.4 197.5Z" fill="#2284a2" stroke="#2284a2"></path><path d="M960 398L873.4 326.5L881.4 393Z" fill="#29bddc" stroke="#29bddc"></path><path d="M903.4 197.5L960 136L862.4 159Z" fill="#27a9c9" stroke="#27a9c9"></path><path d="M960 298L960 294.5L897.4 279Z" fill="#2284a2" stroke="#2284a2"></path><path d="M0 434.5L70.6 507.5L101.1 384Z" fill="#1c607b" stroke="#1c607b"></path><path d="M131.1 502.5L43.6 540L179.1 540Z" fill="#133f55" stroke="#133f55"></path><path d="M813.9 540L905.4 540L796.3 487.5Z" fill="#2496b6" stroke="#2496b6"></path><path d="M960 460.5L960 398L932.4 461.5Z" fill="#1f728f" stroke="#1f728f"></path><path d="M932.4 461.5L960 398L881.4 393Z" fill="#2284a2" stroke="#2284a2"></path><path d="M960 294.5L960 207.5L897.4 279Z" fill="#184f68" stroke="#184f68"></path><path d="M84.6 40.5L28.6 162L154.1 126Z" fill="#133f55" stroke="#133f55"></path><path d="M64.6 210.5L0 254L99.6 234Z" fill="#082030" stroke="#082030"></path><path d="M84.6 40.5L154.1 126L171.1 58.5Z" fill="#2496b6" stroke="#2496b6"></path><path d="M103.1 0L84.6 40.5L171.1 58.5Z" fill="#184f68" stroke="#184f68"></path><path d="M229.7 0L103.1 0L171.1 58.5Z" fill="#184f68" stroke="#184f68"></path><path d="M0 153L0 179.5L28.6 162Z" fill="#1f728f" stroke="#1f728f"></path><path d="M960 540L960 460.5L932.4 461.5Z" fill="#2496b6" stroke="#2496b6"></path><path d="M0 179.5L0 254L64.6 210.5Z" fill="#082030" stroke="#082030"></path><path d="M37.6 376.5L0 434.5L101.1 384Z" fill="#2284a2" stroke="#2284a2"></path><path d="M103.1 0L99.6 0L84.6 40.5Z" fill="#00121f" stroke="#00121f"></path><path d="M0 254L0 365.5L37.6 376.5Z" fill="#00121f" stroke="#00121f"></path><path d="M960 207.5L960 136L903.4 197.5Z" fill="#2284a2" stroke="#2284a2"></path><path d="M0 365.5L0 397L37.6 376.5Z" fill="#184f68" stroke="#184f68"></path><path d="M932.4 26.5L832.9 57.5L845.9 120Z" fill="#082030" stroke="#082030"></path><path d="M0 540L43.6 540L70.6 507.5Z" fill="#1f728f" stroke="#1f728f"></path><path d="M70.6 507.5L43.6 540L131.1 502.5Z" fill="#082030" stroke="#082030"></path><path d="M28.6 162L0 179.5L64.6 210.5Z" fill="#082030" stroke="#082030"></path><path d="M0 153L28.6 162L0 44.5Z" fill="#29bddc" stroke="#29bddc"></path><path d="M0 397L0 434.5L37.6 376.5Z" fill="#1c607b" stroke="#1c607b"></path><path d="M960 136L960 94.5L845.9 120Z" fill="#0e2f42" stroke="#0e2f42"></path><path d="M0 44.5L28.6 162L84.6 40.5Z" fill="#00121f" stroke="#00121f"></path><path d="M960 94.5L932.4 26.5L845.9 120Z" fill="#184f68" stroke="#184f68"></path><path d="M905.4 540L960 540L932.4 461.5Z" fill="#29bddc" stroke="#29bddc"></path><path d="M0 434.5L0 540L70.6 507.5Z" fill="#184f68" stroke="#184f68"></path><path d="M0 0L0 44.5L84.6 40.5Z" fill="#0e2f42" stroke="#0e2f42"></path><path d="M960 94.5L960 0L932.4 26.5Z" fill="#184f68" stroke="#184f68"></path><path d="M932.4 26.5L960 0L898.4 0Z" fill="#00121f" stroke="#00121f"></path><path d="M99.6 0L0 0L84.6 40.5Z" fill="#1c607b" stroke="#1c607b"></path></g></svg>