<svg id="visual" viewBox="0 0 900 600" width="900" height="600" xmlns="http://www.w3.org/2000/svg" xmlns:xlink="http://www.w3.org/1999/xlink" version="1.1"><g stroke-width="1" stroke-linejoin="bevel"><path d="M440 330L393.7 281L397.7 371Z" fill="#1f728f" stroke="#1f728f"></path><path d="M422 264L393.7 259L393.7 281Z" fill="#29bddc" stroke="#29bddc"></path><path d="M440 330L422 264L393.7 281Z" fill="#184f68" stroke="#184f68"></path><path d="M290.4 284L296.1 329L393.7 281Z" fill="#1f728f" stroke="#1f728f"></path><path d="M393.7 281L296.1 329L397.7 371Z" fill="#2496b6" stroke="#2496b6"></path><path d="M296.1 329L323.4 399L397.7 371Z" fill="#27a9c9" stroke="#27a9c9"></path><path d="M414.7 437L445 422L397.7 371Z" fill="#1f728f" stroke="#1f728f"></path><path d="M397.7 371L445 422L440 330Z" fill="#1f728f" stroke="#1f728f"></path><path d="M296.1 329L288.1 346L323.4 399Z" fill="#2496b6" stroke="#2496b6"></path><path d="M445 422L492 383L440 330Z" fill="#1f728f" stroke="#1f728f"></path><path d="M440 330L520.3 250L422 264Z" fill="#1c607b" stroke="#1c607b"></path><path d="M323.4 399L414.7 437L397.7 371Z" fill="#0e2f42" stroke="#0e2f42"></path><path d="M295.4 255L290.4 284L393.7 281Z" fill="#29bddc" stroke="#29bddc"></path><path d="M296.1 329L290.4 284L288.1 346Z" fill="#2496b6" stroke="#2496b6"></path><path d="M393.7 259L295.4 255L393.7 281Z" fill="#29bddc" stroke="#29bddc"></path><path d="M422 264L419.7 203L393.7 259Z" fill="#29bddc" stroke="#29bddc"></path><path d="M393.7 259L296.4 200L295.4 255Z" fill="#1f728f" stroke="#1f728f"></path><path d="M520.3 250L419.7 203L422 264Z" fill="#082030" stroke="#082030"></path><path d="M419.7 203L413 197L393.7 259Z" fill="#184f68" stroke="#184f68"></path><path d="M288.1 346L281.4 397L323.4 399Z" fill="#2496b6" stroke="#2496b6"></path><path d="M349.4 464L369.7 469L414.7 437Z" fill="#00121f" stroke="#00121f"></path><path d="M229.9 387L281.4 397L288.1 346Z" fill="#29bddc" stroke="#29bddc"></path><path d="M509.3 478L488.3 426L471 504Z" fill="#1f728f" stroke="#1f728f"></path><path d="M445 422L488.3 426L492 383Z" fill="#27a9c9" stroke="#27a9c9"></path><path d="M349.4 464L414.7 437L323.4 399Z" fill="#2496b6" stroke="#2496b6"></path><path d="M471 504L488.3 426L445 422Z" fill="#184f68" stroke="#184f68"></path><path d="M281.4 397L349.4 464L323.4 399Z" fill="#1f728f" stroke="#1f728f"></path><path d="M550.3 339L440 330L492 383Z" fill="#2284a2" stroke="#2284a2"></path><path d="M550.3 339L520.3 250L440 330Z" fill="#082030" stroke="#082030"></path><path d="M419.7 203L491.3 178L413 197Z" fill="#00121f" stroke="#00121f"></path><path d="M551.6 378L550.3 339L492 383Z" fill="#27a9c9" stroke="#27a9c9"></path><path d="M413 197L296.4 200L393.7 259Z" fill="#2284a2" stroke="#2284a2"></path><path d="M295.4 255L189.9 240L290.4 284Z" fill="#2496b6" stroke="#2496b6"></path><path d="M158.9 321L229.9 387L288.1 346Z" fill="#27a9c9" stroke="#27a9c9"></path><path d="M540.6 438L551.6 378L492 383Z" fill="#1f728f" stroke="#1f728f"></path><path d="M296.4 200L285.1 203L295.4 255Z" fill="#184f68" stroke="#184f68"></path><path d="M550.3 339L553.3 275L520.3 250Z" fill="#1f728f" stroke="#1f728f"></path><path d="M571.6 264L553.3 275L550.3 339Z" fill="#1f728f" stroke="#1f728f"></path><path d="M349.4 464L391.7 502L369.7 469Z" fill="#133f55" stroke="#133f55"></path><path d="M369.7 469L391.7 502L414.7 437Z" fill="#2496b6" stroke="#2496b6"></path><path d="M488.3 426L540.6 438L492 383Z" fill="#00121f" stroke="#00121f"></path><path d="M204.9 394L229.9 387L158.9 321Z" fill="#133f55" stroke="#133f55"></path><path d="M281.4 397L273.1 510L349.4 464Z" fill="#2496b6" stroke="#2496b6"></path><path d="M349.4 464L273.1 510L391.7 502Z" fill="#29bddc" stroke="#29bddc"></path><path d="M548.6 149L491.3 178L520.3 250Z" fill="#1c607b" stroke="#1c607b"></path><path d="M520.3 250L491.3 178L419.7 203Z" fill="#2284a2" stroke="#2284a2"></path><path d="M413 197L358.4 146L296.4 200Z" fill="#1c607b" stroke="#1c607b"></path><path d="M509.3 478L540.6 438L488.3 426Z" fill="#2496b6" stroke="#2496b6"></path><path d="M385.7 93L358.4 146L443 94Z" fill="#2284a2" stroke="#2284a2"></path><path d="M296.4 200L263.1 184L285.1 203Z" fill="#1c607b" stroke="#1c607b"></path><path d="M615.6 260L571.6 264L639.9 329Z" fill="#082030" stroke="#082030"></path><path d="M553.3 275L571.6 264L520.3 250Z" fill="#2284a2" stroke="#2284a2"></path><path d="M471 504L445 422L414.7 437Z" fill="#0e2f42" stroke="#0e2f42"></path><path d="M391.7 502L443 513L414.7 437Z" fill="#27a9c9" stroke="#27a9c9"></path><path d="M443 513L471 504L414.7 437Z" fill="#29bddc" stroke="#29bddc"></path><path d="M299.1 124L263.1 184L296.4 200Z" fill="#2284a2" stroke="#2284a2"></path><path d="M285.1 203L189.9 240L295.4 255Z" fill="#1c607b" stroke="#1c607b"></path><path d="M204.9 394L214.1 407L229.9 387Z" fill="#184f68" stroke="#184f68"></path><path d="M229.9 387L214.1 407L281.4 397Z" fill="#00121f" stroke="#00121f"></path><path d="M540.6 438L591.6 373L551.6 378Z" fill="#27a9c9" stroke="#27a9c9"></path><path d="M551.6 378L591.6 373L550.3 339Z" fill="#133f55" stroke="#133f55"></path><path d="M639.9 329L591.6 373L669.9 377Z" fill="#2496b6" stroke="#2496b6"></path><path d="M158.9 321L288.1 346L290.4 284Z" fill="#184f68" stroke="#184f68"></path><path d="M218.1 476L281.4 397L214.1 407Z" fill="#2496b6" stroke="#2496b6"></path><path d="M218.1 476L273.1 510L281.4 397Z" fill="#082030" stroke="#082030"></path><path d="M391.7 502L412 600L443 513Z" fill="#0e2f42" stroke="#0e2f42"></path><path d="M263.1 184L189.9 240L285.1 203Z" fill="#1f728f" stroke="#1f728f"></path><path d="M347.7 96L299.1 124L358.4 146Z" fill="#00121f" stroke="#00121f"></path><path d="M358.4 146L299.1 124L296.4 200Z" fill="#082030" stroke="#082030"></path><path d="M109.6 218L127.6 252L189.9 240Z" fill="#29bddc" stroke="#29bddc"></path><path d="M639.9 329L571.6 264L550.3 339Z" fill="#133f55" stroke="#133f55"></path><path d="M571.6 264L548.6 149L520.3 250Z" fill="#0e2f42" stroke="#0e2f42"></path><path d="M155.6 454L218.1 476L214.1 407Z" fill="#00121f" stroke="#00121f"></path><path d="M443 94L413 197L491.3 178Z" fill="#184f68" stroke="#184f68"></path><path d="M443 94L358.4 146L413 197Z" fill="#2284a2" stroke="#2284a2"></path><path d="M597.6 159L548.6 149L571.6 264Z" fill="#133f55" stroke="#133f55"></path><path d="M385.7 93L347.7 96L358.4 146Z" fill="#2284a2" stroke="#2284a2"></path><path d="M189.9 240L158.9 321L290.4 284Z" fill="#0e2f42" stroke="#0e2f42"></path><path d="M204.9 394L155.6 454L214.1 407Z" fill="#00121f" stroke="#00121f"></path><path d="M522.3 118L443 94L491.3 178Z" fill="#27a9c9" stroke="#27a9c9"></path><path d="M548.6 149L522.3 118L491.3 178Z" fill="#2496b6" stroke="#2496b6"></path><path d="M669.9 377L591.6 373L676.9 447Z" fill="#133f55" stroke="#133f55"></path><path d="M591.6 373L639.9 329L550.3 339Z" fill="#2284a2" stroke="#2284a2"></path><path d="M127.6 252L145.6 327L158.9 321Z" fill="#133f55" stroke="#133f55"></path><path d="M158.9 321L142.6 332L204.9 394Z" fill="#133f55" stroke="#133f55"></path><path d="M639.9 329L646.9 310L615.6 260Z" fill="#2284a2" stroke="#2284a2"></path><path d="M615.6 260L626.9 212L571.6 264Z" fill="#00121f" stroke="#00121f"></path><path d="M127.6 252L142.6 332L145.6 327Z" fill="#29bddc" stroke="#29bddc"></path><path d="M145.6 327L142.6 332L158.9 321Z" fill="#29bddc" stroke="#29bddc"></path><path d="M674.9 182L626.9 212L723.1 295Z" fill="#27a9c9" stroke="#27a9c9"></path><path d="M548.6 149L604.6 69L522.3 118Z" fill="#2284a2" stroke="#2284a2"></path><path d="M152.9 500L215.9 515L218.1 476Z" fill="#00121f" stroke="#00121f"></path><path d="M218.1 476L215.9 515L273.1 510Z" fill="#27a9c9" stroke="#27a9c9"></path><path d="M505.3 577L471 504L443 513Z" fill="#133f55" stroke="#133f55"></path><path d="M626.9 212L597.6 159L571.6 264Z" fill="#29bddc" stroke="#29bddc"></path><path d="M142.6 332L155.6 454L204.9 394Z" fill="#184f68" stroke="#184f68"></path><path d="M471 504L558.6 543L509.3 478Z" fill="#29bddc" stroke="#29bddc"></path><path d="M509.3 478L558.6 543L540.6 438Z" fill="#2284a2" stroke="#2284a2"></path><path d="M505.3 577L558.6 543L471 504Z" fill="#27a9c9" stroke="#27a9c9"></path><path d="M285.4 576L391.7 502L273.1 510Z" fill="#2284a2" stroke="#2284a2"></path><path d="M215.9 515L285.4 576L273.1 510Z" fill="#2496b6" stroke="#2496b6"></path><path d="M412 600L505.3 577L443 513Z" fill="#082030" stroke="#082030"></path><path d="M362.4 600L382.7 600L391.7 502Z" fill="#184f68" stroke="#184f68"></path><path d="M382.7 600L412 600L391.7 502Z" fill="#1f728f" stroke="#1f728f"></path><path d="M285.4 576L362.4 600L391.7 502Z" fill="#133f55" stroke="#133f55"></path><path d="M178.9 142L189.9 240L263.1 184Z" fill="#082030" stroke="#082030"></path><path d="M189.9 240L127.6 252L158.9 321Z" fill="#1f728f" stroke="#1f728f"></path><path d="M129.6 487L152.9 500L155.6 454Z" fill="#27a9c9" stroke="#27a9c9"></path><path d="M676.9 447L591.6 373L540.6 438Z" fill="#133f55" stroke="#133f55"></path><path d="M639.9 329L707.1 346L646.9 310Z" fill="#133f55" stroke="#133f55"></path><path d="M723.1 295L626.9 212L615.6 260Z" fill="#1c607b" stroke="#1c607b"></path><path d="M213.9 99L263.1 184L299.1 124Z" fill="#133f55" stroke="#133f55"></path><path d="M213.9 99L178.9 142L263.1 184Z" fill="#29bddc" stroke="#29bddc"></path><path d="M243.1 30L213.9 99L299.1 124Z" fill="#27a9c9" stroke="#27a9c9"></path><path d="M310.4 23L299.1 124L347.7 96Z" fill="#2284a2" stroke="#2284a2"></path><path d="M505.3 577L541.6 600L558.6 543Z" fill="#29bddc" stroke="#29bddc"></path><path d="M412 600L511.3 600L505.3 577Z" fill="#0e2f42" stroke="#0e2f42"></path><path d="M155.6 454L152.9 500L218.1 476Z" fill="#2496b6" stroke="#2496b6"></path><path d="M215.9 515L237.1 600L285.4 576Z" fill="#29bddc" stroke="#29bddc"></path><path d="M129.6 487L155.6 454L98.3 442Z" fill="#2284a2" stroke="#2284a2"></path><path d="M178.9 142L109.6 218L189.9 240Z" fill="#2496b6" stroke="#2496b6"></path><path d="M21.3 367L98.3 442L142.6 332Z" fill="#133f55" stroke="#133f55"></path><path d="M102.3 98L109.6 218L178.9 142Z" fill="#1f728f" stroke="#1f728f"></path><path d="M558.6 543L676.9 447L540.6 438Z" fill="#1f728f" stroke="#1f728f"></path><path d="M702.1 490L676.9 447L666.9 544Z" fill="#00121f" stroke="#00121f"></path><path d="M98.3 442L155.6 454L142.6 332Z" fill="#27a9c9" stroke="#27a9c9"></path><path d="M148.6 582L237.1 600L215.9 515Z" fill="#29bddc" stroke="#29bddc"></path><path d="M511.3 600L541.6 600L505.3 577Z" fill="#00121f" stroke="#00121f"></path><path d="M417 0L385.7 0L385.7 93Z" fill="#2284a2" stroke="#2284a2"></path><path d="M385.7 0L310.4 23L347.7 96Z" fill="#133f55" stroke="#133f55"></path><path d="M525.3 40L468 23L443 94Z" fill="#29bddc" stroke="#29bddc"></path><path d="M525.3 40L443 94L522.3 118Z" fill="#2496b6" stroke="#2496b6"></path><path d="M717.1 381L707.1 346L669.9 377Z" fill="#00121f" stroke="#00121f"></path><path d="M669.9 377L707.1 346L639.9 329Z" fill="#0e2f42" stroke="#0e2f42"></path><path d="M626.9 212L674.9 182L597.6 159Z" fill="#133f55" stroke="#133f55"></path><path d="M604.6 69L525.3 40L522.3 118Z" fill="#1f728f" stroke="#1f728f"></path><path d="M723.1 295L615.6 260L646.9 310Z" fill="#27a9c9" stroke="#27a9c9"></path><path d="M597.6 159L604.6 69L548.6 149Z" fill="#29bddc" stroke="#29bddc"></path><path d="M385.7 0L347.7 96L385.7 93Z" fill="#29bddc" stroke="#29bddc"></path><path d="M148.6 582L215.9 515L152.9 500Z" fill="#00121f" stroke="#00121f"></path><path d="M285.4 576L237.1 600L362.4 600Z" fill="#082030" stroke="#082030"></path><path d="M32.3 287L142.6 332L127.6 252Z" fill="#0e2f42" stroke="#0e2f42"></path><path d="M170.6 95L178.9 142L213.9 99Z" fill="#29bddc" stroke="#29bddc"></path><path d="M170.6 95L161.9 104L178.9 142Z" fill="#2496b6" stroke="#2496b6"></path><path d="M243.1 30L170.6 95L213.9 99Z" fill="#1f728f" stroke="#1f728f"></path><path d="M417 0L385.7 93L443 94Z" fill="#2496b6" stroke="#2496b6"></path><path d="M676.9 447L717.1 381L669.9 377Z" fill="#1c607b" stroke="#1c607b"></path><path d="M707.1 346L723.1 295L646.9 310Z" fill="#133f55" stroke="#133f55"></path><path d="M555.3 0L417 0L468 23Z" fill="#27a9c9" stroke="#27a9c9"></path><path d="M468 23L417 0L443 94Z" fill="#1f728f" stroke="#1f728f"></path><path d="M789.4 318L723.1 295L707.1 346Z" fill="#0e2f42" stroke="#0e2f42"></path><path d="M658.9 90L604.6 69L597.6 159Z" fill="#082030" stroke="#082030"></path><path d="M525.3 40L555.3 0L468 23Z" fill="#2496b6" stroke="#2496b6"></path><path d="M385.7 0L329.4 0L310.4 23Z" fill="#1f728f" stroke="#1f728f"></path><path d="M310.4 23L243.1 30L299.1 124Z" fill="#27a9c9" stroke="#27a9c9"></path><path d="M230.1 0L243.1 30L310.4 23Z" fill="#1c607b" stroke="#1c607b"></path><path d="M699.1 169L684.9 156L674.9 182Z" fill="#133f55" stroke="#133f55"></path><path d="M674.9 182L684.9 156L597.6 159Z" fill="#2284a2" stroke="#2284a2"></path><path d="M749.1 270L699.1 169L674.9 182Z" fill="#00121f" stroke="#00121f"></path><path d="M684.9 156L658.9 90L597.6 159Z" fill="#1f728f" stroke="#1f728f"></path><path d="M102.3 98L65.3 216L109.6 218Z" fill="#1c607b" stroke="#1c607b"></path><path d="M109.6 218L65.3 216L127.6 252Z" fill="#0e2f42" stroke="#0e2f42"></path><path d="M666.9 544L676.9 447L558.6 543Z" fill="#082030" stroke="#082030"></path><path d="M676.9 447L747.4 479L717.1 381Z" fill="#2284a2" stroke="#2284a2"></path><path d="M660.9 600L666.9 544L558.6 543Z" fill="#1c607b" stroke="#1c607b"></path><path d="M98.3 442L85.3 496L129.6 487Z" fill="#1f728f" stroke="#1f728f"></path><path d="M129.6 487L85.3 496L152.9 500Z" fill="#082030" stroke="#082030"></path><path d="M0 457L85.3 496L98.3 442Z" fill="#1c607b" stroke="#1c607b"></path><path d="M739.1 129L658.9 90L684.9 156Z" fill="#1f728f" stroke="#1f728f"></path><path d="M85.3 496L148.6 582L152.9 500Z" fill="#2496b6" stroke="#2496b6"></path><path d="M666.9 544L697.1 516L702.1 490Z" fill="#133f55" stroke="#133f55"></path><path d="M0 144L54.3 217L65.3 216Z" fill="#2496b6" stroke="#2496b6"></path><path d="M65.3 216L32.3 287L127.6 252Z" fill="#133f55" stroke="#133f55"></path><path d="M789.4 318L749.1 270L723.1 295Z" fill="#1c607b" stroke="#1c607b"></path><path d="M723.1 295L749.1 270L674.9 182Z" fill="#29bddc" stroke="#29bddc"></path><path d="M769.4 382L707.1 346L717.1 381Z" fill="#184f68" stroke="#184f68"></path><path d="M769.4 382L717.1 381L747.4 479Z" fill="#0e2f42" stroke="#0e2f42"></path><path d="M135.6 600L158.9 600L148.6 582Z" fill="#29bddc" stroke="#29bddc"></path><path d="M148.6 582L158.9 600L237.1 600Z" fill="#184f68" stroke="#184f68"></path><path d="M590.6 0L555.3 0L604.6 69Z" fill="#29bddc" stroke="#29bddc"></path><path d="M604.6 69L555.3 0L525.3 40Z" fill="#082030" stroke="#082030"></path><path d="M54.3 217L32.3 287L65.3 216Z" fill="#29bddc" stroke="#29bddc"></path><path d="M329.4 0L230.1 0L310.4 23Z" fill="#29bddc" stroke="#29bddc"></path><path d="M243.1 30L162.9 0L170.6 95Z" fill="#0e2f42" stroke="#0e2f42"></path><path d="M170.6 95L102.3 98L161.9 104Z" fill="#184f68" stroke="#184f68"></path><path d="M161.9 104L102.3 98L178.9 142Z" fill="#1c607b" stroke="#1c607b"></path><path d="M106.6 25L102.3 98L170.6 95Z" fill="#133f55" stroke="#133f55"></path><path d="M32.3 287L21.3 367L142.6 332Z" fill="#00121f" stroke="#00121f"></path><path d="M97.3 600L148.6 582L71.3 580Z" fill="#133f55" stroke="#133f55"></path><path d="M97.3 600L135.6 600L148.6 582Z" fill="#2284a2" stroke="#2284a2"></path><path d="M747.4 479L676.9 447L702.1 490Z" fill="#1c607b" stroke="#1c607b"></path><path d="M624.9 0L590.6 0L604.6 69Z" fill="#1f728f" stroke="#1f728f"></path><path d="M541.6 600L660.9 600L558.6 543Z" fill="#1f728f" stroke="#1f728f"></path><path d="M666.9 544L674.1 600L697.1 516Z" fill="#2284a2" stroke="#2284a2"></path><path d="M697.1 516L747.4 479L702.1 490Z" fill="#2284a2" stroke="#2284a2"></path><path d="M768.4 541L747.4 479L697.1 516Z" fill="#133f55" stroke="#133f55"></path><path d="M660.9 600L674.1 600L666.9 544Z" fill="#133f55" stroke="#133f55"></path><path d="M749.1 270L769.4 204L699.1 169Z" fill="#2496b6" stroke="#2496b6"></path><path d="M699.1 169L739.1 129L684.9 156Z" fill="#29bddc" stroke="#29bddc"></path><path d="M658.9 90L624.9 0L604.6 69Z" fill="#29bddc" stroke="#29bddc"></path><path d="M812.4 268L769.4 204L749.1 270Z" fill="#133f55" stroke="#133f55"></path><path d="M809.4 316L789.4 318L824.7 341Z" fill="#2284a2" stroke="#2284a2"></path><path d="M769.4 382L789.4 318L707.1 346Z" fill="#29bddc" stroke="#29bddc"></path><path d="M769.4 204L739.1 129L699.1 169Z" fill="#184f68" stroke="#184f68"></path><path d="M32.3 287L0 367L21.3 367Z" fill="#1f728f" stroke="#1f728f"></path><path d="M21.3 367L0 440L98.3 442Z" fill="#1c607b" stroke="#1c607b"></path><path d="M0 262L0 367L32.3 287Z" fill="#00121f" stroke="#00121f"></path><path d="M707.1 47L624.9 0L658.9 90Z" fill="#1f728f" stroke="#1f728f"></path><path d="M0 248L32.3 287L54.3 217Z" fill="#0e2f42" stroke="#0e2f42"></path><path d="M0 248L0 262L32.3 287Z" fill="#1c607b" stroke="#1c607b"></path><path d="M230.1 0L162.9 0L243.1 30Z" fill="#184f68" stroke="#184f68"></path><path d="M0 144L0 248L54.3 217Z" fill="#27a9c9" stroke="#27a9c9"></path><path d="M65.3 87L65.3 216L102.3 98Z" fill="#2284a2" stroke="#2284a2"></path><path d="M71.3 580L148.6 582L85.3 496Z" fill="#1c607b" stroke="#1c607b"></path><path d="M106.6 25L65.3 87L102.3 98Z" fill="#00121f" stroke="#00121f"></path><path d="M0 367L0 440L21.3 367Z" fill="#2496b6" stroke="#2496b6"></path><path d="M0 580L71.3 580L85.3 496Z" fill="#082030" stroke="#082030"></path><path d="M824.7 341L789.4 318L769.4 382Z" fill="#00121f" stroke="#00121f"></path><path d="M789.4 318L812.4 268L749.1 270Z" fill="#1c607b" stroke="#1c607b"></path><path d="M0 440L0 457L98.3 442Z" fill="#1c607b" stroke="#1c607b"></path><path d="M835.7 512L798.7 428L747.4 479Z" fill="#29bddc" stroke="#29bddc"></path><path d="M747.4 479L798.7 428L769.4 382Z" fill="#082030" stroke="#082030"></path><path d="M779.4 116L744.4 99L739.1 129Z" fill="#27a9c9" stroke="#27a9c9"></path><path d="M739.1 129L744.4 99L658.9 90Z" fill="#00121f" stroke="#00121f"></path><path d="M779.4 116L739.1 129L769.4 204Z" fill="#1c607b" stroke="#1c607b"></path><path d="M162.9 0L106.6 25L170.6 95Z" fill="#2284a2" stroke="#2284a2"></path><path d="M744.4 99L707.1 47L658.9 90Z" fill="#0e2f42" stroke="#0e2f42"></path><path d="M809.4 316L812.4 268L789.4 318Z" fill="#2284a2" stroke="#2284a2"></path><path d="M162.9 0L119.6 0L106.6 25Z" fill="#27a9c9" stroke="#27a9c9"></path><path d="M0 91L0 144L65.3 87Z" fill="#184f68" stroke="#184f68"></path><path d="M857.7 394L824.7 341L769.4 382Z" fill="#27a9c9" stroke="#27a9c9"></path><path d="M809.4 316L856.7 281L812.4 268Z" fill="#2496b6" stroke="#2496b6"></path><path d="M674.1 600L768.4 541L697.1 516Z" fill="#082030" stroke="#082030"></path><path d="M900 336L856.7 281L824.7 341Z" fill="#1f728f" stroke="#1f728f"></path><path d="M0 91L65.3 87L0 88Z" fill="#1f728f" stroke="#1f728f"></path><path d="M65.3 87L0 144L65.3 216Z" fill="#0e2f42" stroke="#0e2f42"></path><path d="M830.7 157L779.4 116L769.4 204Z" fill="#00121f" stroke="#00121f"></path><path d="M744.4 99L793.7 81L707.1 47Z" fill="#29bddc" stroke="#29bddc"></path><path d="M753.4 0L689.1 0L707.1 47Z" fill="#1f728f" stroke="#1f728f"></path><path d="M707.1 47L689.1 0L624.9 0Z" fill="#133f55" stroke="#133f55"></path><path d="M0 88L65.3 87L32.3 0Z" fill="#2496b6" stroke="#2496b6"></path><path d="M32.3 0L65.3 87L106.6 25Z" fill="#2284a2" stroke="#2284a2"></path><path d="M824.7 341L856.7 281L809.4 316Z" fill="#27a9c9" stroke="#27a9c9"></path><path d="M812.4 268L834.7 169L769.4 204Z" fill="#27a9c9" stroke="#27a9c9"></path><path d="M857.7 394L769.4 382L798.7 428Z" fill="#1f728f" stroke="#1f728f"></path><path d="M900 247L834.7 169L812.4 268Z" fill="#1f728f" stroke="#1f728f"></path><path d="M779.4 116L793.7 81L744.4 99Z" fill="#0e2f42" stroke="#0e2f42"></path><path d="M834.7 169L830.7 157L769.4 204Z" fill="#2284a2" stroke="#2284a2"></path><path d="M872.7 460L857.7 394L798.7 428Z" fill="#184f68" stroke="#184f68"></path><path d="M830.7 157L793.7 81L779.4 116Z" fill="#2284a2" stroke="#2284a2"></path><path d="M0 457L0 580L85.3 496Z" fill="#27a9c9" stroke="#27a9c9"></path><path d="M71.3 580L0 600L97.3 600Z" fill="#133f55" stroke="#133f55"></path><path d="M674.1 600L782.4 600L768.4 541Z" fill="#133f55" stroke="#133f55"></path><path d="M768.4 541L835.7 512L747.4 479Z" fill="#082030" stroke="#082030"></path><path d="M824.7 600L835.7 512L768.4 541Z" fill="#184f68" stroke="#184f68"></path><path d="M0 580L0 600L71.3 580Z" fill="#1f728f" stroke="#1f728f"></path><path d="M793.7 81L753.4 0L707.1 47Z" fill="#1f728f" stroke="#1f728f"></path><path d="M119.6 0L32.3 0L106.6 25Z" fill="#29bddc" stroke="#29bddc"></path><path d="M900 465L872.7 460L900 519Z" fill="#27a9c9" stroke="#27a9c9"></path><path d="M835.7 512L872.7 460L798.7 428Z" fill="#00121f" stroke="#00121f"></path><path d="M857.7 394L900 336L824.7 341Z" fill="#29bddc" stroke="#29bddc"></path><path d="M900 421L900 336L857.7 394Z" fill="#27a9c9" stroke="#27a9c9"></path><path d="M856.7 281L900 247L812.4 268Z" fill="#184f68" stroke="#184f68"></path><path d="M834.7 169L900 156L830.7 157Z" fill="#082030" stroke="#082030"></path><path d="M900 336L900 268L856.7 281Z" fill="#00121f" stroke="#00121f"></path><path d="M830.7 157L900 71L793.7 81Z" fill="#082030" stroke="#082030"></path><path d="M793.7 81L859.7 0L753.4 0Z" fill="#133f55" stroke="#133f55"></path><path d="M782.4 600L824.7 600L768.4 541Z" fill="#1f728f" stroke="#1f728f"></path><path d="M900 268L900 247L856.7 281Z" fill="#29bddc" stroke="#29bddc"></path><path d="M32.3 0L0 0L0 88Z" fill="#0e2f42" stroke="#0e2f42"></path><path d="M900 465L900 421L872.7 460Z" fill="#29bddc" stroke="#29bddc"></path><path d="M872.7 460L900 421L857.7 394Z" fill="#2284a2" stroke="#2284a2"></path><path d="M900 519L872.7 460L835.7 512Z" fill="#082030" stroke="#082030"></path><path d="M900 247L900 156L834.7 169Z" fill="#27a9c9" stroke="#27a9c9"></path><path d="M900 156L900 134L830.7 157Z" fill="#29bddc" stroke="#29bddc"></path><path d="M900 600L900 519L835.7 512Z" fill="#1f728f" stroke="#1f728f"></path><path d="M900 134L900 71L830.7 157Z" fill="#133f55" stroke="#133f55"></path><path d="M900 71L859.7 0L793.7 81Z" fill="#184f68" stroke="#184f68"></path><path d="M824.7 600L900 600L835.7 512Z" fill="#0e2f42" stroke="#0e2f42"></path><path d="M900 71L900 0L859.7 0Z" fill="#0e2f42" stroke="#0e2f42"></path></g></svg>